<svg id="Capa_1" enable-background="new 0 0 511.99 511.99" height="512" viewBox="0 0 511.99 511.99" width="512" xmlns="http://www.w3.org/2000/svg"><g><path d="m175.305 89.162c0 15.302 12.449 27.751 27.75 27.751s27.751-12.449 27.751-27.751-12.449-27.751-27.751-27.751-27.75 12.449-27.75 27.751zm40.502 0c0 7.031-5.72 12.751-12.751 12.751s-12.75-5.72-12.75-12.751 5.72-12.751 12.75-12.751 12.751 5.72 12.751 12.751z"/><path d="m446.558 22.246c-4.058-.826-8.02 1.793-8.847 5.852s1.793 8.02 5.852 8.847c30.958 6.308 53.428 33.851 53.428 65.491v40.136h-481.991v-40.136c0-36.855 29.984-66.84 66.84-66.84h333.3c4.142 0 7.5-3.358 7.5-7.5s-3.358-7.5-7.5-7.5h-333.3c-45.127-.001-81.84 36.713-81.84 81.839v307.11c0 45.132 36.713 81.85 81.84 81.85h348.3c45.132 0 81.85-36.718 81.85-81.85v-307.11c0-38.739-27.518-72.463-65.432-80.189zm-16.418 454.149h-348.3c-36.856 0-66.84-29.989-66.84-66.85v-251.974h481.99v251.974c0 36.861-29.989 66.85-66.85 66.85z"/><path d="m46.542 89.162c0 15.302 12.449 27.751 27.751 27.751s27.75-12.449 27.75-27.751-12.449-27.751-27.75-27.751-27.751 12.449-27.751 27.751zm40.501 0c0 7.031-5.72 12.751-12.75 12.751s-12.751-5.72-12.751-12.751 5.72-12.751 12.751-12.751 12.75 5.72 12.75 12.751z"/><path d="m110.923 89.162c0 15.302 12.449 27.751 27.751 27.751s27.751-12.449 27.751-27.751-12.449-27.751-27.751-27.751-27.751 12.449-27.751 27.751zm40.502 0c0 7.031-5.72 12.751-12.751 12.751s-12.751-5.72-12.751-12.751 5.72-12.751 12.751-12.751 12.751 5.72 12.751 12.751z"/><path d="m82.79 169.865h-21.97c-16.972 0-30.78 13.812-30.78 30.79v196.79c0 16.978 13.808 30.79 30.78 30.79h6.97c4.142 0 7.5-3.358 7.5-7.5s-3.358-7.5-7.5-7.5h-6.97c-8.701 0-15.78-7.083-15.78-15.79v-30.929h53.53v30.929c0 4.937-2.244 9.495-6.155 12.507-3.282 2.527-3.895 7.236-1.368 10.518 2.528 3.282 7.237 3.894 10.519 1.368 7.629-5.874 12.004-14.765 12.004-24.393v-196.79c0-16.977-13.808-30.79-30.78-30.79zm-21.97 15h21.97c8.701 0 15.78 7.083 15.78 15.79v30.929h-53.53v-30.929c0-8.706 7.079-15.79 15.78-15.79zm37.75 61.719v44.966h-53.53v-44.966zm-53.53 104.932v-44.966h53.53v44.966z"/><path d="m430.759 382.223c4.725-6.289 6.305-14.302 4.22-22.086-2.414-9.007-9.231-15.825-18.238-18.239l-35.01-9.381v-54.684c10.199-3.198 17.62-12.737 17.62-23.978 0-13.853-11.27-25.123-25.123-25.123-6.552 0-12.523 2.523-17 6.646l-60.438-34.902c.395-1.767.61-3.6.61-5.484 0-13.853-11.27-25.122-25.123-25.122s-25.123 11.27-25.123 25.122c0 1.886.216 3.722.612 5.49l-60.437 34.898c-4.477-4.124-10.45-6.648-17.002-6.648-13.853 0-25.123 11.27-25.123 25.123 0 11.242 7.423 20.783 17.625 23.979v69.759c-10.202 3.197-17.625 12.737-17.625 23.979 0 13.853 11.27 25.122 25.123 25.122 6.555 0 12.529-2.526 17.007-6.652l60.432 34.904c-.396 1.768-.611 3.603-.611 5.489 0 13.853 11.27 25.123 25.123 25.123s25.123-11.27 25.123-25.123c0-1.886-.216-3.722-.612-5.49l43.881-25.339 3.88 14.481c2.414 9.007 9.231 15.825 18.238 18.239 7.785 2.087 15.798.506 22.087-4.219l11.514 11.514c6.325 6.325 14.634 9.488 22.942 9.488 8.309 0 16.617-3.163 22.942-9.488 12.65-12.65 12.65-33.233 0-45.884zm-56.531-138.491c5.582 0 10.123 4.541 10.123 10.123s-4.541 10.123-10.123 10.123-10.122-4.541-10.122-10.123 4.54-10.123 10.122-10.123zm-84.95 50.51c-4.477-4.123-10.449-6.646-17-6.646-6.552 0-12.524 2.524-17.002 6.647l-60.437-34.899c.396-1.768.611-3.604.611-5.489s-.216-3.721-.611-5.489l60.438-34.898c4.477 4.123 10.449 6.647 17.001 6.647 6.555 0 12.529-2.526 17.006-6.652l60.434 34.9c-.396 1.769-.612 3.606-.612 5.493s.216 3.723.612 5.492zm-111.448 53.353v-69.763c3.575-1.121 6.807-3.023 9.499-5.503l60.437 34.898c-.396 1.768-.612 3.604-.612 5.49 0 11.242 7.423 20.782 17.625 23.979v69.759c-3.578 1.121-6.812 3.024-9.506 5.505l-60.435-34.905c.395-1.766.61-3.6.61-5.483.002-11.239-7.419-20.778-17.618-23.977zm94.447-24.755c-5.582 0-10.123-4.541-10.123-10.122s4.541-10.123 10.123-10.123 10.123 4.541 10.123 10.123-4.541 10.122-10.123 10.122zm0-137.97c5.582 0 10.123 4.541 10.123 10.122s-4.541 10.123-10.123 10.123-10.123-4.541-10.123-10.123 4.542-10.122 10.123-10.122zm-101.95 58.862c5.582 0 10.123 4.541 10.123 10.123s-4.541 10.123-10.123 10.123-10.123-4.541-10.123-10.123 4.542-10.123 10.123-10.123zm0 137.963c-5.582 0-10.123-4.541-10.123-10.122s4.541-10.123 10.123-10.123 10.123 4.541 10.123 10.123-4.541 10.122-10.123 10.122zm101.95 58.863c-5.582 0-10.123-4.541-10.123-10.123s4.541-10.123 10.123-10.123 10.123 4.541 10.123 10.123-4.541 10.123-10.123 10.123zm17.002-28.598c-2.692-2.479-5.924-4.381-9.499-5.502v-69.763c10.199-3.198 17.62-12.737 17.62-23.977 0-1.887-.216-3.723-.612-5.492l60.44-34.895c2.693 2.48 5.926 4.382 9.503 5.503v50.663l-5.451-1.461c-9.004-2.412-18.32.083-24.914 6.676s-9.089 15.907-6.676 24.915l6.961 25.979zm142.388 17.054c-6.802 6.801-17.87 6.802-24.671 0l-16.631-16.631c-1.464-1.464-3.384-2.197-5.303-2.197s-3.839.732-5.303 2.197l-2.661 2.661c-2.76 2.759-6.659 3.804-10.426 2.793-3.769-1.01-6.622-3.863-7.632-7.632l-14.86-55.46c-1.01-3.769.034-7.666 2.793-10.425s6.655-3.804 10.426-2.793l55.461 14.861c3.769 1.01 6.622 3.863 7.631 7.632 1.01 3.769-.034 7.666-2.793 10.425l-2.661 2.661c-2.929 2.929-2.929 7.678 0 10.606l16.632 16.632c6.8 6.801 6.8 17.868-.002 24.67z"/></g></svg>