<svg id="Layer_1" enable-background="new 0 0 512 512" height="512" viewBox="0 0 512 512" width="512" xmlns="http://www.w3.org/2000/svg"><g><path d="m94.814 182.777c.466.087.928.129 1.385.129 3.541 0 6.691-2.519 7.364-6.126 17.489-93.741 99.512-161.78 195.033-161.78 44.914 0 87.274 14.636 122.502 42.324 3.256 2.558 7.971 1.994 10.531-1.262 2.56-3.257 1.995-7.972-1.262-10.531-37.896-29.786-83.463-45.531-131.771-45.531-102.741 0-190.965 73.19-209.779 174.029-.759 4.072 1.926 7.989 5.997 8.748z"/><path d="m458.459 72.032c-2.746-3.103-7.484-3.391-10.587-.646-3.102 2.745-3.391 7.485-.646 10.587 32.097 36.27 49.774 82.946 49.774 131.432 0 109.4-89.004 198.404-198.404 198.404-109.401 0-198.405-89.004-198.405-198.404 0-4.142-3.357-7.5-7.5-7.5s-7.5 3.358-7.5 7.5c0 34.629 8.298 67.353 22.999 96.301-2.818 3.002-5.932 6.302-9.097 9.655-5.499 5.826-11.185 11.851-15.618 16.631-2.333 2.516-2.662 6.294-.798 9.174.462.715 5.155 7.882 14.072 18.716-25.041 23.402-72.693 72.491-94.832 97.173-2.154 2.402-2.531 5.913-.936 8.717.391.687 9.919 17.088 40.362 40.658 1.357 1.05 2.976 1.57 4.592 1.57 1.793 0 3.582-.641 5-1.909 9.786-8.75 22.521-20.646 36.831-34.402 2.986-2.871 3.08-7.618.21-10.604-2.871-2.986-7.619-3.079-10.604-.209-11.99 11.525-22.847 21.718-31.751 29.81-15.726-12.74-24.427-22.692-28.548-28.023 23.133-25.374 66.075-69.498 89.476-91.408 8.076 8.968 18.196 19.283 30.367 30.014-8.08 8.639-19.609 20.412-33.181 33.87-2.94 2.917-2.961 7.665-.044 10.606 1.466 1.479 3.396 2.219 5.325 2.219 1.909 0 3.818-.724 5.281-2.174 13.968-13.85 25.83-25.973 34.079-34.816 5.733 4.664 11.836 9.351 18.319 13.991 1.313.938 2.841 1.401 4.363 1.401 1.841 0 3.673-.675 5.103-2.001 4.849-4.498 10.866-10.172 16.687-15.659 3.275-3.087 6.496-6.125 9.449-8.895 28.948 14.701 61.673 22.999 96.301 22.999 117.67-.001 213.402-95.734 213.402-213.405 0-52.151-19.015-102.359-53.541-141.373zm-275.903 329.76c-4.092 3.858-8.282 7.809-12.082 11.366-39.143-29.07-63.447-59.837-71.872-71.393 3.548-3.788 7.521-7.998 11.4-12.109 1.983-2.101 3.944-4.179 5.829-6.181 17.966 29.72 42.973 54.726 72.693 72.693-1.937 1.823-3.942 3.713-5.968 5.624z"/><path d="m340.804 375.637c73.825-19.155 125.386-85.868 125.386-162.232 0-92.412-75.183-167.594-167.594-167.594-92.412 0-167.595 75.183-167.595 167.594s75.183 167.594 167.595 167.594c4.143 0 7.5-3.358 7.5-7.5s-3.357-7.5-7.5-7.5c-84.141 0-152.595-68.453-152.595-152.594s68.454-152.594 152.595-152.594 152.594 68.454 152.594 152.594c0 69.532-46.941 130.274-114.153 147.713-4.009 1.041-6.416 5.134-5.376 9.144 1.04 4.008 5.13 6.414 9.143 5.375z"/><path d="m298.987 272.941c.251-3.49 5.816-85.801-21.398-115.037-6.794-7.299-15.032-11-24.486-11s-17.692 3.701-24.486 11c-27.215 29.236-21.649 111.547-21.398 115.037.283 3.949 3.574 6.964 7.473 6.964.18 0 .362-.007.544-.02 4.132-.296 7.241-3.886 6.944-8.018-.604-8.428-.966-22.675-.115-38.18 11.571-.371 36.574-.942 62.066-.03.856 15.516.498 29.776-.103 38.212-.295 4.131 2.814 7.719 6.945 8.015 4.141.294 7.717-2.813 8.014-6.943zm-75.708-54.297c2.219-20.394 6.964-40.472 16.317-50.519 3.896-4.185 8.314-6.22 13.507-6.22 5.191 0 9.608 2.033 13.503 6.216 9.339 10.029 14.083 30.097 16.306 50.489-24.098-.8-47.501-.332-59.633.034z"/><path d="m383.52 277.779c4.135-.238 7.294-3.784 7.056-7.919-.238-4.136-3.806-7.284-7.919-7.057-7.458.43-14.99.637-22.068.71v-100.597c7.079.073 14.61.28 22.068.71.147.008.293.012.438.012 3.944 0 7.251-3.08 7.48-7.069.238-4.135-2.921-7.681-7.056-7.919-29.733-1.712-59.597-.071-60.854 0-4.135.233-7.299 3.774-7.066 7.909s3.775 7.3 7.909 7.067c.164-.009 9.208-.504 22.079-.681v100.539c-12.871-.177-21.915-.672-22.079-.681-4.151-.221-7.677 2.932-7.909 7.067s2.932 7.676 7.066 7.909c.829.046 14.104.777 31.581.777 9.018.001 19.154-.194 29.274-.777z"/><path d="m273.588 314.91c0 4.142 3.358 7.5 7.501 7.5s7.501-3.358 7.501-7.5-3.358-7.5-7.501-7.5-7.501 3.358-7.501 7.5z"/><path d="m316.089 322.41c4.143 0 7.501-3.358 7.501-7.5s-3.358-7.5-7.501-7.5-7.501 3.358-7.501 7.5 3.359 7.5 7.501 7.5z"/><path d="m288.59 116.78c0-4.142-3.358-7.5-7.501-7.5s-7.501 3.358-7.501 7.5 3.358 7.5 7.501 7.5 7.501-3.358 7.501-7.5z"/><path d="m316.089 124.28c4.143 0 7.501-3.358 7.501-7.5s-3.358-7.5-7.501-7.5-7.501 3.358-7.501 7.5 3.359 7.5 7.501 7.5z"/></g></svg>