<svg id="Layer_1" enable-background="new 0 0 512 512" height="512" viewBox="0 0 512 512" width="512" xmlns="http://www.w3.org/2000/svg"><g><path d="m503.515 11.555c-.369-3.718-3.418-6.598-7.151-6.754-1.147-.048-116.099-4.801-240.364-4.801-33.107 0-68.456.335-105.063.994-4.143.075-7.44 3.493-7.365 7.634.074 4.141 3.468 7.396 7.636 7.364 36.517-.658 71.775-.992 104.792-.992 107.002 0 207.081 3.532 233.172 4.529 2.784 32.255 14.053 180.05 3.205 346.918-14.916.555-53.351 1.897-102.974 2.978-.003-35.811-.493-94.024-92.35-106.907 3.057-2.245 5.926-4.791 8.601-7.638 19.909-21.187 23.494-53.336 23.975-69.191 1.915.273 3.876.479 5.882.608 3.598.234 6.846-2.121 7.747-5.608 9.648-37.336-.668-58.97-11.021-70.543-14.309-15.995-34.672-20.218-50.018-18.834-22.661-14.066-61.361-17.517-89.644 1.022-35.275 23.124-32.954 64.993-28.431 87.893.679 3.437 3.647 5.946 7.15 6.044.234.007 1.746.046 4.283.046 1.781 0 4.067-.019 6.77-.083.366 15.137 3.649 47.286 23.617 68.56 2.718 2.896 5.638 5.482 8.755 7.756-91.628 12.949-92.118 71.085-92.12 106.875-49.622-1.08-88.058-2.423-102.974-2.978-10.849-166.868.42-314.664 3.203-346.919 13.587-.521 47.22-1.731 91.142-2.763 4.142-.098 7.421-3.533 7.323-7.674-.096-4.081-3.435-7.324-7.496-7.324-.06 0-.12.001-.179.002-57.607 1.353-97.585 3.015-97.982 3.032-3.733.156-6.782 3.036-7.151 6.754-.192 1.938-18.991 196.188-.006 405.139.34 3.744 3.4 6.657 7.157 6.814.19.008 19.359.807 49.998 1.738.078.003.155.004.232.004 4.037 0 7.37-3.21 7.494-7.271.126-4.141-3.129-7.599-7.27-7.725-20.062-.61-35.183-1.163-43.253-1.473-.796-9.132-1.521-18.232-2.179-27.285 29.164 1.073 130.108 4.481 235.341 4.481s206.178-3.408 235.341-4.481c-.658 9.052-1.382 18.152-2.179 27.284-26.104.997-126.161 4.529-233.161 4.529-47.816 0-99.435-.688-153.424-2.043-.064-.001-.128-.002-.192-.002-4.056 0-7.393 3.235-7.496 7.312-.104 4.141 3.169 7.582 7.311 7.687 34.141.857 67.339 1.447 99.234 1.766-23.625 46.926-59.096 69.897-59.468 70.133-2.822 1.784-4.125 5.219-3.197 8.426.929 3.206 3.867 5.413 7.206 5.413h128.913c4.143 0 7.502-3.357 7.502-7.5s-3.359-7.5-7.502-7.5h-107.316c14.582-13.146 35.278-35.822 50.445-68.83 12.9.092 25.57.138 37.985.138 12.798 0 25.497-.05 37.983-.141 15.167 33.009 35.864 55.686 50.446 68.832h-34.312c-4.143 0-7.502 3.357-7.502 7.5s3.359 7.5 7.502 7.5h55.907c3.335 0 6.265-2.204 7.197-5.405s-.365-6.637-3.178-8.428c-.381-.242-35.855-23.214-59.48-70.144 101.421-1.026 184.824-4.475 185.8-4.516 3.757-.157 6.817-3.07 7.157-6.814 18.985-208.951.186-403.201-.006-405.138zm-218.586 94.598c11.05-.635 25.945 2.614 36.124 13.991 10.348 11.568 13.466 28.921 9.139 50.445-24.645-4.2-40.171-22.324-40.325-22.507-.006-.008-.013-.015-.019-.022-14.758-17.669-8.347-35.201-4.919-41.907zm-87.564 79.392c7.532-.51 16.193-1.347 25.288-2.707 4.098-.613 6.923-4.431 6.31-8.527-.612-4.096-4.43-6.916-8.528-6.309-17.787 2.659-34.138 3.21-42.626 3.294-5.821-38.413 9.061-57.287 22.992-66.419 21.335-13.984 50.871-12.45 69.513-3.059-5.294 11.837-8.383 30.808 3.262 49.332-5.916 3.692-13.146 6.94-21.589 9.694-3.939 1.284-6.09 5.518-4.806 9.455 1.285 3.938 5.516 6.09 9.458 4.805 10.385-3.386 19.303-7.524 26.609-12.34 5.828 5.472 16.627 14.057 31.418 19.252-.094 12.05-2.137 43.681-19.985 62.633-9.543 10.134-22.557 15.272-38.681 15.272-16.334 0-29.475-5.164-39.057-15.35-16.589-17.633-19.264-46.117-19.578-59.026zm74.983 98.977c-2.903 3.859-8.403 5.816-16.348 5.816-7.946 0-13.446-1.957-16.348-5.816-2.462-3.274-3.069-7.844-2.955-11.834 6.001 1.487 12.441 2.234 19.304 2.234 6.861 0 13.301-.759 19.301-2.27.118 4.003-.485 8.588-2.954 11.87zm-16.348 86.456c-41.524 0-82.38-.532-118.399-1.241 0-17.746.056-39.758 11.267-57.5 12.357-19.554 36.246-31.197 72.89-35.478.395 5.429 1.923 11.442 5.835 16.689 5.882 7.891 15.44 11.892 28.407 11.892s22.525-4.001 28.407-11.892c3.911-5.246 5.439-11.26 5.835-16.688 36.682 4.287 60.581 15.948 72.927 35.536 11.175 17.731 11.23 39.716 11.231 57.441-36.018.709-76.873 1.241-118.4 1.241z"/><path d="m45.064 190.629c-4.143 0-7.502 3.357-7.502 7.5v63.894c0 4.143 3.359 7.5 7.502 7.5s7.502-3.357 7.502-7.5v-63.894c0-4.143-3.359-7.5-7.502-7.5z"/><path d="m91.664 259.522c13.336 0 24.186-10.848 24.186-24.181v-30.533c0-13.333-10.85-24.18-24.186-24.18-13.337 0-24.186 10.847-24.186 24.18v30.533c-.001 13.334 10.849 24.181 24.186 24.181zm-9.183-54.713c0-5.062 4.12-9.18 9.183-9.18s9.182 4.118 9.182 9.18v30.533c0 5.063-4.119 9.181-9.182 9.181s-9.183-4.118-9.183-9.181z"/><path d="m450.251 180.629c-13.336 0-24.186 10.847-24.186 24.18v30.533c0 13.333 10.85 24.181 24.186 24.181s24.186-10.848 24.186-24.181v-30.533c.001-13.333-10.849-24.18-24.186-24.18zm9.183 24.18v30.533c0 5.063-4.12 9.181-9.183 9.181s-9.182-4.118-9.182-9.181v-30.533c0-5.062 4.12-9.18 9.183-9.18s9.182 4.118 9.182 9.18z"/><path d="m138.263 269.82c4.143 0 7.502-3.357 7.502-7.5v-63.894c0-4.143-3.359-7.5-7.502-7.5s-7.502 3.357-7.502 7.5v63.894c0 4.143 3.359 7.5 7.502 7.5z"/><path d="m364.72 42.33c-4.143 0-7.502 3.357-7.502 7.5v63.894c0 4.143 3.359 7.5 7.502 7.5s7.502-3.357 7.502-7.5v-63.894c0-4.142-3.359-7.5-7.502-7.5z"/><path d="m411.319 52.33c-13.336 0-24.186 10.848-24.186 24.181v30.532c0 13.333 10.85 24.181 24.186 24.181s24.186-10.848 24.186-24.181v-30.532c0-13.333-10.85-24.181-24.186-24.181zm9.183 54.713c0 5.063-4.12 9.181-9.183 9.181s-9.182-4.118-9.182-9.181v-30.532c0-5.063 4.119-9.181 9.182-9.181s9.183 4.118 9.183 9.181z"/><path d="m366.514 178.278v63.893c0 4.143 3.359 7.5 7.502 7.5s7.502-3.357 7.502-7.5v-63.893c0-4.143-3.359-7.5-7.502-7.5s-7.502 3.358-7.502 7.5z"/><path d="m404.2 181.076c-4.143 0-7.502 3.357-7.502 7.5v63.894c0 4.143 3.359 7.5 7.502 7.5s7.502-3.357 7.502-7.5v-63.894c0-4.142-3.359-7.5-7.502-7.5z"/><path d="m92.797 107.118v-30.533c0-13.333-10.85-24.18-24.186-24.18s-24.186 10.847-24.186 24.18v30.533c0 13.333 10.85 24.18 24.186 24.18s24.186-10.847 24.186-24.18zm-33.368 0v-30.533c0-5.062 4.119-9.18 9.182-9.18s9.182 4.118 9.182 9.18v30.533c0 5.062-4.119 9.18-9.182 9.18s-9.182-4.118-9.182-9.18z"/><path d="m144.847 121.447c4.143 0 7.502-3.357 7.502-7.5v-63.893c0-4.143-3.359-7.5-7.502-7.5s-7.502 3.357-7.502 7.5v63.894c0 4.142 3.359 7.499 7.502 7.499z"/><path d="m122.165 124.246v-63.893c0-4.143-3.359-7.5-7.502-7.5s-7.502 3.357-7.502 7.5v63.894c0 4.143 3.359 7.5 7.502 7.5 4.143-.001 7.502-3.358 7.502-7.501z"/><path d="m465.42 124.022v-63.893c0-4.143-3.359-7.5-7.502-7.5s-7.502 3.357-7.502 7.5v63.894c0 4.143 3.359 7.5 7.502 7.5 4.144-.001 7.502-3.358 7.502-7.501z"/></g></svg>