<svg id="Layer_1" enable-background="new 0 0 512 512" height="512" viewBox="0 0 512 512" width="512" xmlns="http://www.w3.org/2000/svg"><g><path d="m318.301 426.209c-5.353-.154-10.908-.364-16.281-.567-4.13-.155-8.287-.313-12.461-.45-4.145-.119-7.606 3.109-7.743 7.249-.136 4.14 3.109 7.606 7.249 7.743 4.151.137 8.284.293 12.39.448 5.405.204 10.994.415 16.414.571.074.002.147.003.22.003 4.042 0 7.375-3.217 7.493-7.284.119-4.14-3.141-7.594-7.281-7.713z"/><path d="m450.382 291.384c-1.422-1.589-3.453-2.496-5.585-2.497 0 0-.001 0-.002 0-2.131 0-4.162.907-5.585 2.494-.747.833-18.439 20.797-30.96 54.51-1.442 3.883.537 8.2 4.419 9.642.861.32 1.743.472 2.61.472 3.045 0 5.909-1.869 7.032-4.891 4.706-12.671 10.245-23.27 15.156-31.393-2.05 82.245-34.52 102.395-82.309 106.051-4.13.316-7.222 3.921-6.906 8.051.301 3.936 3.587 6.928 7.47 6.928.192 0 .386-.007.581-.021 20.998-1.606 51.253-6.686 71.495-32.131 15.423-19.389 23.542-48.404 24.635-88.273 4.765 8.003 10.073 18.338 14.585 30.622 1.428 3.888 5.737 5.883 9.625 4.454 3.888-1.428 5.883-5.737 4.455-9.626-12.364-33.669-29.972-53.562-30.716-54.392z"/><path d="m61.578 220.59c1.422 1.587 3.453 2.494 5.584 2.494h.002c2.132-.001 4.163-.908 5.585-2.497.744-.83 18.352-20.723 30.716-54.391 1.428-3.889-.566-8.198-4.455-9.626-3.89-1.432-8.199.566-9.625 4.454-4.59 12.502-10.005 22.976-14.833 31.035 1.085-40.435 9.695-68.25 26.13-84.661 24.315-24.28 65.601-22.724 109.311-21.068 4.126.155 8.278.313 12.449.45 4.163.153 7.606-3.109 7.743-7.249.136-4.14-3.109-7.606-7.249-7.743-4.146-.137-8.275-.293-12.377-.447-47.07-1.781-91.532-3.46-120.477 25.442-19.241 19.214-29.288 50.438-30.51 95.035-4.845-8.065-10.271-18.516-14.893-30.96-1.442-3.884-5.759-5.865-9.642-4.419-3.883 1.441-5.862 5.759-4.419 9.642 12.521 33.713 30.213 53.676 30.96 54.509z"/><path d="m242.498 268.679c.117-2.129-.679-4.207-2.187-5.715-1.508-1.507-3.591-2.304-5.716-2.184-.907.05-21.931 1.301-52.466 10.366-17.13-8.315-36.2-12.698-55.354-12.698-26.045 0-51.07 7.84-72.369 22.673-3.399 2.367-4.236 7.041-1.869 10.44 2.368 3.397 7.041 4.237 10.441 1.868 18.771-13.072 40.832-19.981 63.796-19.981 18.056 0 35.29 4.174 51.223 12.404 1.744.9 3.771 1.082 5.645.506 18.64-5.727 33.916-8.418 42.929-9.643-1.129 8.415-3.521 22.283-8.433 39.246-.623 2.15-.252 4.467 1.01 6.315 12.693 18.589 19.402 40.355 19.402 62.947 0 61.633-50.143 111.775-111.776 111.775s-111.774-50.141-111.774-111.773c0-24.813 7.958-48.309 23.015-67.946 2.52-3.287 1.898-7.995-1.389-10.516-3.288-2.519-7.995-1.898-10.516 1.389-17.081 22.28-26.11 48.931-26.11 77.073 0 69.904 56.872 126.775 126.776 126.775s126.776-56.871 126.776-126.775c0-24.433-6.923-48.02-20.053-68.445 7.833-28.197 8.954-47.273 8.999-48.101z"/><path d="m385.224 253.552c69.904 0 126.776-56.872 126.776-126.777s-56.872-126.775-126.776-126.775c-32.393 0-63.224 12.213-86.815 34.389-3.018 2.837-3.165 7.584-.328 10.602 2.836 3.018 7.583 3.163 10.602.328 20.798-19.551 47.981-30.319 76.541-30.319 61.633 0 111.776 50.143 111.776 111.775 0 61.634-50.143 111.776-111.776 111.776-22.592 0-44.358-6.709-62.946-19.401-1.849-1.263-4.164-1.634-6.315-1.011-16.97 4.914-30.842 7.306-39.254 8.434 1.217-8.985 3.901-24.219 9.65-42.93.576-1.876.395-3.902-.506-5.646-8.231-15.934-12.404-33.167-12.404-51.222 0-19.355 5.022-38.423 14.525-55.143 2.047-3.602.787-8.18-2.815-10.227-3.601-2.047-8.179-.785-10.226 2.814-10.784 18.975-16.484 40.605-16.484 62.555 0 19.153 4.382 38.223 12.698 55.353-9.066 30.535-10.316 51.56-10.367 52.466-.118 2.129.677 4.208 2.184 5.716 1.508 1.509 3.587 2.291 5.715 2.188.828-.046 19.904-1.166 48.101-8.999 20.425 13.131 44.012 20.054 68.444 20.054z"/><path d="m71.864 393.74c.753 0 1.649-.006 2.645-.018.581 10.979 3.521 30.478 16.323 44.165 9.291 9.934 21.879 14.97 37.414 14.97 15.382 0 27.881-5.018 37.148-14.913 12.729-13.592 15.864-33.021 16.547-44.386.627.059 1.247.129 1.887.169 1.993.11 3.944-.553 5.435-1.873 1.491-1.321 2.395-3.182 2.512-5.171 1.023-17.302-1.059-40.979-16.786-55.526-9.458-8.748-20.779-11.225-28.88-10.64-14.854-4.471-37.857-5.151-56.271 7.192-16.891 11.323-26.403 30.834-28.271 57.99-.14 2.039.558 4.047 1.933 5.56 1.375 1.512 3.307 2.398 5.35 2.452.151.003 1.216.029 3.014.029zm82.541 33.993c-6.403 6.812-14.959 10.123-26.159 10.123-11.35 0-19.991-3.327-26.417-10.171-9.567-10.188-11.84-25.805-12.323-34.618 3.343-.245 6.947-.574 10.715-1.021 20.021-2.376 35.757-6.922 46.908-13.541 4.196 3.558 11.003 8.384 19.938 11.666-.261 8.534-2.133 26.361-12.662 37.562zm-56.215-87.565c8.538-5.724 18.364-7.579 27.036-7.579 7.159 0 13.531 1.266 17.735 2.663 1.091.362 2.25.469 3.39.313 4.543-.626 12.1.729 18.452 6.603 7.764 7.182 11.92 19.321 12.185 35.386-14.389-3.582-23.324-13.454-23.409-13.549-2.604-2.98-7.074-3.425-10.212-1.016-8.88 6.812-24.342 11.701-44.715 14.138-8.304.994-15.888 1.385-21.273 1.53 2.6-18.036 9.582-30.962 20.811-38.489z"/><path d="m432.642 147.485c3.907 1.372 8.189-.682 9.563-4.589 7.753-22.059 5.045-45.582-7.242-62.925-11.182-15.782-28.846-24.474-49.738-24.474-30.628 0-54.185 19.144-60.015 48.771-3.367 17.109-.207 35.405 8.897 51.52 10.081 17.842 26.774 31.926 48.276 40.729.911.373 1.876.56 2.842.56s1.931-.187 2.842-.56c12.863-5.267 23.993-12.393 33.082-21.182 2.978-2.88 3.057-7.628.178-10.605-2.88-2.978-7.628-3.059-10.605-.178-7.045 6.813-15.611 12.479-25.496 16.871-16.972-7.546-30.092-18.913-38.059-33.014-7.344-12.998-9.915-27.646-7.239-41.244 3.488-17.726 17.22-36.667 45.297-36.667 15.891 0 29.208 6.444 37.499 18.146 9.479 13.38 11.472 31.802 5.33 49.278-1.375 3.908.68 8.189 4.588 9.563z"/><path d="m364.612 107.806c-4.164-.128-7.592 3.144-7.71 7.284-.01.355-.21 8.822 2.974 19.312.983 3.237 3.958 5.323 7.174 5.323.722 0 1.456-.104 2.182-.325 3.964-1.203 6.201-5.393 4.998-9.355-2.415-7.952-2.336-14.37-2.333-14.554.103-4.13-3.153-7.568-7.285-7.685z"/><path d="m401.217 139.399c.726.221 1.459.325 2.182.325 3.216 0 6.191-2.086 7.174-5.323 3.185-10.489 2.984-18.956 2.974-19.312-.116-4.066-3.447-7.272-7.492-7.272-.063 0-.125.001-.188.002-4.129.102-7.399 3.538-7.314 7.668.001.064.104 6.528-2.333 14.557-1.204 3.963 1.033 8.152 4.997 9.355z"/></g></svg>