<svg id="Layer_1" enable-background="new 0 0 512 512" height="512" viewBox="0 0 512 512" width="512" xmlns="http://www.w3.org/2000/svg"><g><path d="m312.629 495.759c-44.07 1.897-110.962 2.531-182.139-4.936-13.586-104.003-3.092-198.95-.014-222.655 2.484-.266 5.749-.599 9.735-.972 14.653 41.042 29.516 89.748 39.658 140.72-10.315-.887-16.292-1.612-16.521-1.64-4.109-.516-7.856 2.409-8.366 6.519s2.407 7.856 6.518 8.367c.615.076 41.776 5.073 97.361 5.073 27.988 0 59.639-1.268 91.601-5.068 4.113-.489 7.051-4.22 6.562-8.334s-4.224-7.051-8.333-6.562c-6.443.766-12.873 1.427-19.261 1.994 3.507-15.877 7.621-32.221 12.266-48.717 1.123-3.987-1.198-8.13-5.186-9.253-3.986-1.123-8.13 1.199-9.252 5.186-5.157 18.313-9.673 36.449-13.445 53.995-47.017 3.133-90.436 1.515-118.424-.373-10.668-55.098-26.897-107.769-42.681-151.435-.148-.712-.395-1.384-.726-2.002-23.977-65.974-46.714-110.896-47.098-111.649-1.884-3.69-6.401-5.155-10.09-3.272s-5.154 6.4-3.271 10.09c.362.709 20.907 41.302 43.384 101.798-7.643.75-11.776 1.27-12.008 1.3-3.318.42-5.957 2.988-6.468 6.294-.067.43-2.589 17.131-4.732 44.509-11.762.274-23.621.622-35.341 1.037-4.14.146-7.376 3.622-7.229 7.761.144 4.05 3.471 7.235 7.49 7.235.09 0 .18-.001.271-.005 11.193-.397 22.514-.731 33.753-.999-1.976 31.636-3.041 73.47-.149 119.488-43.926-1.043-79.68-2.894-102.423-4.303-4.145-.259-7.693 2.888-7.95 7.022-.256 4.134 2.888 7.694 7.022 7.95 23.122 1.432 59.611 3.319 104.428 4.361 1.172 14.519 2.756 29.378 4.842 44.397.472 3.4 3.191 6.045 6.603 6.423 47.303 5.244 92.934 6.896 131.67 6.896 22.096 0 41.954-.538 58.587-1.254 4.139-.178 7.349-3.677 7.171-7.816-.178-4.138-3.711-7.329-7.815-7.17z"/><path d="m7.493 324.094c.156 0 .313-.005.472-.015 10.199-.633 21.022-1.229 32.17-1.771 4.137-.201 7.328-3.718 7.126-7.856-.202-4.137-3.704-7.324-7.856-7.127-11.214.546-22.104 1.145-32.37 1.782-4.134.257-7.278 3.816-7.021 7.95.248 3.977 3.549 7.037 7.479 7.037z"/><path d="m504.507 324.094c3.93 0 7.232-3.061 7.479-7.037.257-4.134-2.887-7.694-7.021-7.95-23.107-1.433-59.569-3.32-104.36-4.364-1.172-14.52-2.756-29.38-4.843-44.401-.473-3.4-3.191-6.045-6.603-6.422-3.647-.405-7.349-.794-11.078-1.167 23.604-59.432 44.86-99.255 45.148-99.791 1.959-3.649.59-8.196-3.059-10.156-3.648-1.96-8.195-.591-10.155 3.057-.307.571-24.026 44.989-49.336 110.176-.16.335-.296.684-.406 1.046-7.366 19.024-14.857 39.793-21.936 61.742-1.271 3.943.894 8.169 4.836 9.44.765.247 1.54.364 2.304.364 3.167 0 6.111-2.023 7.136-5.2 6.4-19.844 13.139-38.708 19.811-56.16 3.104.298 6.197.609 9.262.93 13.584 103.988 3.095 198.921.015 222.644-5.875.621-16.076 1.617-29.646 2.622-4.131.306-7.231 3.902-6.926 8.033.292 3.943 3.581 6.947 7.472 6.947.186 0 .373-.007.562-.021 22.479-1.665 35.546-3.265 36.091-3.332 3.329-.411 5.98-2.982 6.493-6.297.067-.43 2.589-17.132 4.732-44.513 44.795-1.043 81.265-2.928 104.38-4.36 4.134-.256 7.278-3.816 7.021-7.95-.256-4.134-3.787-7.283-7.949-7.022-22.738 1.409-58.483 3.259-102.396 4.302 1.975-31.635 3.041-73.465.148-119.48 43.898 1.045 79.626 2.896 102.354 4.306.157.009.314.014.47.014z"/><path d="m148.567 177.691c1.818 1.203 45.213 29.604 106.089 41.444.476.092.955.138 1.432.138s.956-.045 1.432-.138c60.876-11.839 104.271-40.24 106.089-41.444 1.85-1.224 3.062-3.204 3.313-5.407 7.144-62.838.292-122.799-.003-125.321-.27-2.313-1.609-4.402-3.667-5.604-53.367-31.169-103.668-40.834-105.783-41.23-.953-.18-1.928-.17-2.875.022-57.667 11.721-103.899 40.107-105.838 41.31-1.967 1.219-3.235 3.259-3.498 5.503-.296 2.528-7.147 62.486-.003 125.321.25 2.203 1.463 4.182 3.312 5.406zm203.842-10.689c-9.897 5.99-44.019 25.266-88.821 35.518v-109.225l89.357-34.863c1.59 19.007 4.23 63.201-.536 108.57zm-193.177-108.57 22.888 8.93c3.86 1.506 8.208-.403 9.713-4.261 1.505-3.859-.402-8.208-4.261-9.714l-17.301-6.75c17.313-9.029 49.369-23.85 85.825-31.48 7.553 1.599 44.694 10.156 85.729 31.511l-9.872 3.852-75.865 29.599-35.413-13.816c-3.859-1.503-8.208.403-9.713 4.261-1.505 3.859.402 8.208 4.261 9.714l33.365 13.017v109.224c-44.807-10.252-78.929-29.531-88.821-35.517-4.762-45.324-2.123-89.55-.535-108.57z"/><path d="m195.218 259.754c-3.561 2.116-4.732 6.718-2.616 10.279.268.45 26.856 45.728 35.726 107.094.54 3.737 3.746 6.428 7.414 6.428.357 0 .719-.025 1.082-.078 4.1-.592 6.943-4.396 6.35-8.496-9.292-64.291-36.522-110.669-37.677-112.612-2.117-3.56-6.719-4.732-10.279-2.615z"/><path d="m306.504 262.37c-1.154 1.943-28.385 48.322-37.677 112.612-.593 4.1 2.25 7.904 6.35 8.496.364.053.726.078 1.083.078 3.667 0 6.873-2.692 7.413-6.428 8.846-61.203 35.46-106.646 35.728-107.098 2.113-3.56.942-8.16-2.617-10.275-3.562-2.117-8.164-.947-10.28 2.615z"/><circle cx="180.037" cy="234.832" r="7.5"/><circle cx="255.997" cy="291.834" r="7.5"/><path d="m324.466 234.832c0 4.142 3.358 7.5 7.501 7.5s7.501-3.358 7.501-7.5-3.358-7.5-7.501-7.5-7.501 3.358-7.501 7.5z"/><circle cx="76.617" cy="379.517" r="7.5"/><circle cx="31.647" cy="379.507" r="7.5"/><path d="m472.856 379.507c0 4.142 3.358 7.5 7.501 7.5s7.501-3.358 7.501-7.5-3.358-7.5-7.501-7.5-7.501 3.358-7.501 7.5z"/><path d="m427.886 379.497c0 4.142 3.358 7.5 7.501 7.5s7.501-3.358 7.501-7.5-3.358-7.5-7.501-7.5-7.501 3.358-7.501 7.5z"/></g></svg>