<svg id="Capa_1" enable-background="new 0 0 512 512" height="512" viewBox="0 0 512 512" width="512" xmlns="http://www.w3.org/2000/svg"><g><path d="m307.685 110.298c-1.922-5.913-6.938-10.143-13.092-11.037l-16.619-2.415-7.432-15.059c-2.752-5.576-8.323-9.04-14.542-9.04-6.218 0-11.791 3.464-14.542 9.04l-7.432 15.059-16.619 2.415c-6.153.894-11.17 5.123-13.091 11.037s-.349 12.284 4.104 16.624l12.025 11.722-2.839 16.552c-1.051 6.128 1.421 12.206 6.452 15.861 5.03 3.655 11.575 4.128 17.079 1.235l14.863-7.815 14.864 7.815c2.394 1.258 4.984 1.88 7.561 1.88 3.349 0 6.675-1.049 9.518-3.115 5.03-3.655 7.502-9.733 6.45-15.861l-2.839-16.551 12.026-11.722c4.453-4.341 6.027-10.711 4.105-16.625zm-14.575 5.884-13.208 12.874c-2.795 2.725-4.069 6.648-3.41 10.497l3.118 18.179c.031.185.128.746-.484 1.19-.612.446-1.116.18-1.281.093l-16.429-8.637c-1.695-.891-3.556-1.337-5.416-1.337s-3.721.446-5.417 1.337l-16.427 8.636c-.165.087-.669.353-1.282-.093-.612-.444-.516-1.006-.484-1.19l3.118-18.179c.66-3.848-.615-7.772-3.411-10.497l-13.208-12.874c-.134-.13-.542-.528-.308-1.247.233-.72.797-.802.982-.829l18.254-2.652c3.863-.562 7.2-2.987 8.928-6.487l8.163-16.54c.083-.168.335-.679 1.091-.679s1.008.511 1.091.678l8.165 16.544c1.729 3.498 5.066 5.921 8.928 6.483l18.253 2.652c.184.027.749.109.982.828.234.721-.174 1.119-.308 1.25z"/><path d="m182.233 214.294v17.133c0 8.547 6.953 15.5 15.5 15.5h116.533c8.547 0 15.5-6.953 15.5-15.5v-17.133c0-8.547-6.953-15.5-15.5-15.5h-116.533c-8.546 0-15.5 6.953-15.5 15.5zm132.534 0v17.133c0 .276-.225.5-.5.5h-116.534c-.276 0-.5-.224-.5-.5v-17.133c0-.276.224-.5.5-.5h116.533c.276 0 .501.224.501.5z"/><path d="m230.867 265.061c-8.547 0-15.5 6.953-15.5 15.5v17.133c0 8.547 6.953 15.5 15.5 15.5h50.267c8.547 0 15.5-6.953 15.5-15.5v-17.133c0-8.547-6.953-15.5-15.5-15.5zm50.767 15.5v17.133c0 .276-.225.5-.5.5h-50.267c-.276 0-.5-.224-.5-.5v-17.133c0-.276.224-.5.5-.5h50.267c.275 0 .5.224.5.5z"/><path d="m500.1 234.124-54.366-54.366v-122.564c0-13.271-10.796-24.067-24.066-24.067h-122.566l-26.084-26.085c-9.383-9.383-24.651-9.381-34.035 0l-26.085 26.084h-122.565c-13.271 0-24.067 10.796-24.067 24.067v23.608c0 4.142 3.358 7.5 7.5 7.5s7.5-3.358 7.5-7.5v-23.607c0-5 4.067-9.067 9.067-9.067h331.334c4.999 0 9.066 4.067 9.066 9.067v125.666.01 104.171l-123.298 77.062-28.896-19.264c-13.691-9.127-31.386-9.128-45.078 0l-28.895 19.264-123.299-77.062v-104.173c0-.002 0-.003 0-.005v-67.062c0-4.142-3.358-7.5-7.5-7.5s-7.5 3.358-7.5 7.5v63.957l-54.365 54.365c-7.675 7.676-11.902 17.88-11.902 28.733v225.071c0 13.271 10.796 24.067 24.067 24.067h48.767c4.142 0 7.5-3.358 7.5-7.5s-3.358-7.5-7.5-7.5h-40.563l209.51-139.674c8.637-5.758 19.8-5.759 28.437 0l209.512 139.674h-371.897c-4.142 0-7.5 3.358-7.5 7.5s3.358 7.5 7.5 7.5h380.1c13.271 0 24.066-10.796 24.066-24.067v-225.071c.001-10.852-4.225-21.056-11.899-28.732zm-250.511-216.474c3.535-3.536 9.288-3.535 12.822 0l15.478 15.478h-43.778zm-234.271 472.619c-.201-.749-.318-1.531-.318-2.342v-224.614l175.871 109.92zm50.949-289.297v76.694l-46.81-29.256c.893-1.304 1.909-2.537 3.051-3.679zm379.466 0 43.759 43.758c1.142 1.142 2.158 2.376 3.052 3.68l-46.811 29.257zm51.267 62.341v224.614c0 .811-.117 1.593-.318 2.341l-175.553-117.035z"/></g></svg>