<svg id="Capa_1" enable-background="new 0 0 511.996 511.996" height="512" viewBox="0 0 511.996 511.996" width="512" xmlns="http://www.w3.org/2000/svg"><g><path d="m463.258 326.92v-141.845c12.051-7.448 20.101-20.776 20.101-35.953 0-23.291-18.948-42.239-42.238-42.239-7.263 0-14.104 1.844-20.08 5.086l-122.835-70.919c-.633-22.742-19.317-41.05-42.208-41.05-22.892 0-41.575 18.308-42.209 41.05l-122.833 70.919c-5.976-3.243-12.816-5.086-20.079-5.086-23.291 0-42.239 18.948-42.239 42.239 0 15.177 8.05 28.505 20.101 35.953v141.849c-12.051 7.448-20.1 20.776-20.1 35.953 0 4.95.855 9.81 2.542 14.445 1.416 3.893 5.719 5.899 9.613 4.483 3.892-1.417 5.899-5.72 4.483-9.613-1.087-2.986-1.638-6.12-1.638-9.315 0-15.02 12.22-27.24 27.24-27.24 15.021 0 27.24 12.22 27.24 27.24 0 15.015-12.22 27.23-27.24 27.23-3.224 0-6.371-.553-9.354-1.644-3.889-1.42-8.196.578-9.62 4.468-1.422 3.89.578 8.197 4.468 9.62 4.639 1.696 9.519 2.556 14.506 2.556 7.262 0 14.101-1.843 20.076-5.083l122.836 70.921c.633 22.742 19.317 41.051 42.209 41.051s41.575-18.309 42.208-41.051l122.834-70.919c5.976 3.242 12.816 5.086 20.08 5.086 23.29 0 42.238-18.948 42.238-42.239-.002-15.177-8.052-28.506-20.102-35.953zm-15-5.67c-2.322-.397-4.704-.615-7.138-.615-2.431 0-4.812.218-7.132.614v-130.502c2.32.396 4.7.614 7.132.614 2.433 0 4.816-.218 7.138-.615zm-337.76 56.266 113.032 65.257c-3.038 3.649-5.474 7.815-7.153 12.346l-113.033-65.261c3.038-3.648 5.474-7.812 7.154-12.342zm105.879-136.148-113.031-65.265c3.038-3.649 5.473-7.815 7.152-12.347l113.032 65.265c-3.038 3.65-5.473 7.816-7.153 12.347zm59.7-161.977 50.69 29.262c1.182.682 2.471 1.006 3.743 1.006 2.592 0 5.113-1.346 6.502-3.752 2.071-3.587.842-8.174-2.745-10.245l-45.802-26.44c3.038-3.649 5.473-7.815 7.152-12.346l113.034 65.261c-3.037 3.648-5.473 7.813-7.152 12.343l-41.382-23.889c-3.589-2.071-8.175-.842-10.245 2.746-2.071 3.587-.842 8.174 2.745 10.245l44.234 25.535-120.774 69.735c-5.976-3.243-12.817-5.087-20.08-5.087s-14.105 1.844-20.081 5.087l-120.774-69.736 120.775-69.727c5.976 3.243 12.817 5.087 20.08 5.087 7.264.002 14.105-1.842 20.08-5.085zm19.541 161.977c-1.679-4.531-4.115-8.698-7.153-12.347l113.033-65.265c1.679 4.531 4.115 8.698 7.152 12.347zm-185.123-106.887c-1.679-4.53-4.115-8.695-7.152-12.343l113.034-65.261c1.679 4.531 4.115 8.697 7.153 12.346zm145.503 94.286c15.02 0 27.238 12.219 27.238 27.239s-12.219 27.239-27.238 27.239-27.239-12.219-27.239-27.239 12.219-27.239 27.239-27.239zm0 69.477c2.431 0 4.81-.218 7.13-.614v130.502c-2.32-.396-4.699-.614-7.13-.614s-4.81.218-7.13.614v-130.502c2.32.396 4.699.614 7.13.614zm145.502 79.27c1.679 4.53 4.115 8.695 7.152 12.343l-113.035 65.262c-1.679-4.531-4.115-8.697-7.153-12.346zm-2.589-15.825-120.783 69.731v-139.456c11.738-7.251 19.669-20.084 20.078-34.769l120.782-69.74v139.461c-11.739 7.252-19.67 20.087-20.077 34.773zm69.447-212.567c0 15.02-12.219 27.239-27.238 27.239s-27.239-12.219-27.239-27.239 12.22-27.239 27.239-27.239 27.238 12.22 27.238 27.239zm-212.36-134.122c15.02 0 27.238 12.219 27.238 27.239s-12.219 27.239-27.238 27.239-27.239-12.219-27.239-27.239 12.219-27.239 27.239-27.239zm-185.122 106.883c15.02 0 27.239 12.219 27.239 27.239s-12.219 27.239-27.239 27.239-27.239-12.219-27.239-27.239 12.22-27.239 27.239-27.239zm-7.138 199.37v-130.508c2.322.397 4.705.615 7.138.615 2.431 0 4.811-.218 7.131-.614v130.505c-2.32-.396-4.699-.614-7.13-.614-2.433.001-4.816.219-7.139.616zm29.27 5.665v-139.463l120.782 69.74c.409 14.685 8.34 27.518 20.079 34.769v139.457l-120.78-69.73c-.409-14.687-8.341-27.522-20.081-34.773zm162.99 170.078c-15.02 0-27.239-12.219-27.239-27.239s12.219-27.239 27.239-27.239 27.238 12.219 27.238 27.239-12.219 27.239-27.238 27.239zm185.122-106.884c-15.02 0-27.239-12.219-27.239-27.239s12.22-27.239 27.239-27.239 27.238 12.219 27.238 27.239-12.219 27.239-27.238 27.239z"/></g></svg>