<svg id="Layer_1" enable-background="new 0 0 512 512" height="512" viewBox="0 0 512 512" width="512" xmlns="http://www.w3.org/2000/svg"><g><path d="m254.803 199.909c-6.77 0-13.392 1.196-19.681 3.555-3.878 1.455-5.843 5.778-4.389 9.656 1.455 3.878 5.777 5.841 9.656 4.389 4.599-1.725 9.448-2.6 14.413-2.6 22.645 0 41.067 18.434 41.067 41.091s-18.423 41.091-41.067 41.091-41.067-18.433-41.067-41.091c0-6.439 1.444-12.602 4.292-18.315 1.848-3.707.341-8.21-3.366-10.058s-8.21-.341-10.058 3.366c-3.894 7.811-5.869 16.225-5.869 25.008 0 30.929 25.152 56.091 56.067 56.091s56.069-25.163 56.069-56.092-25.152-56.091-56.067-56.091z"/><path d="m490.798 330.166c-3.692-23.016-18.814-48.619-42.624-74.166.806-.865 1.614-1.729 2.402-2.596 36.388-40.011 49.22-77.511 36.132-105.593-8.274-17.75-26.365-30.187-52.514-36.205-1.245-12.907-12.145-23.032-25.369-23.032-11.813 0-21.773 8.082-24.65 19.007-11.809.412-24.264 1.629-37.189 3.604-6.759-23.085-15.147-43.65-24.94-60.56-2.075-3.584-6.664-4.807-10.249-2.731-3.584 2.076-4.808 6.665-2.731 10.249 9.001 15.542 16.762 34.394 23.086 55.593-24.761 4.748-50.912 12.084-77.268 21.691-26.847-9.839-52.96-17.114-77.449-21.776 3.226-10.745 6.835-20.942 10.82-30.473 18.114-43.328 42.37-68.178 66.548-68.178 11.948 0 23.761 5.821 35.109 17.301 2.913 2.946 7.661 2.974 10.607.061 2.945-2.912 2.973-7.661.061-10.606-14.271-14.436-29.673-21.756-45.777-21.756-30.973 0-59.522 27.485-80.389 77.391-4.4 10.524-8.365 21.806-11.873 33.716-60.266-9.086-108.908-1.33-131.354 24.091-1.833-.42-3.738-.65-5.696-.65-14.056 0-25.491 11.439-25.491 25.499 0 11.935 8.241 21.978 19.329 24.742 4.365 21.953 18.731 46.231 42.091 71.225-.802.86-1.606 1.721-2.39 2.583-36.388 40.011-49.22 77.511-36.132 105.593 6.351 13.625 18.202 23.975 35.244 30.849-.033.53-.055 1.063-.055 1.602 0 14.061 11.435 25.5 25.49 25.5 11.341 0 20.972-7.45 24.27-17.713 2.936.111 5.913.172 8.938.172 14.364 0 29.711-1.253 45.748-3.674 4.027 13.644 8.653 26.47 13.854 38.288 1.236 2.809 3.985 4.48 6.869 4.48 1.009 0 2.035-.205 3.017-.638 3.792-1.668 5.512-6.094 3.844-9.886-4.688-10.652-8.904-22.33-12.625-34.805 24.705-4.715 50.788-12.042 77.31-21.763 26.463 9.694 52.559 17.026 77.369 21.748-3.226 10.745-6.834 20.941-10.819 30.472-18.116 43.328-42.372 68.178-66.549 68.178-21.613 0-38.739-19.091-49.3-35.105-2.28-3.458-6.933-4.412-10.39-2.132-3.458 2.28-4.413 6.932-2.132 10.39 18.053 27.376 39.431 41.847 61.822 41.847 30.973 0 59.522-27.484 80.389-77.391 4.401-10.525 8.365-21.808 11.875-33.72 12.897 1.944 25.382 3.145 37.308 3.548.086.003.172.004.258.004 4.024 0 7.354-3.193 7.491-7.247.14-4.14-3.104-7.609-7.243-7.749-10.825-.366-22.142-1.418-33.834-3.118 4.904-19.353 8.673-40.121 11.226-61.833 28.965-17.905 54.603-37.52 75.432-57.806 21.359 22.922 34.972 45.545 38.226 65.418-8.788 4.028-14.91 12.904-14.91 23.19 0 5.075 1.496 9.805 4.061 13.782-9.715 9.522-25.455 15.996-46.004 18.842-4.103.568-6.968 4.355-6.399 8.458.52 3.754 3.733 6.472 7.419 6.472.343 0 .689-.023 1.039-.072 24.795-3.434 43.401-11.5 55.454-23.994 3.051 1.294 6.403 2.01 9.92 2.01 14.056 0 25.49-11.439 25.49-25.499-.001-12.596-9.183-23.083-21.203-25.129zm-81.974-226.593c5.784 0 10.49 4.71 10.49 10.499s-4.706 10.499-10.49 10.499-10.49-4.71-10.49-10.499 4.706-10.499 10.49-10.499zm-72.675 24.66c3.977 15.563 7.231 32.165 9.677 49.501-13.961-7.987-28.649-15.609-43.941-22.744-8.515-3.972-17.007-7.691-25.453-11.172 20.428-6.723 40.531-11.969 59.717-15.585zm-162.756-.053c19.273 3.612 39.403 8.866 59.874 15.622-8.541 3.505-17.07 7.233-25.547 11.188-15.235 7.108-29.959 14.736-44.019 22.777 2.432-17.344 5.679-33.961 9.692-49.587zm-147.903 42.366c-5.784 0-10.49-4.71-10.49-10.499s4.706-10.499 10.49-10.499 10.49 4.71 10.49 10.499-4.706 10.499-10.49 10.499zm8.99 13.358c9.632-3.644 16.501-12.961 16.501-23.857 0-6.54-2.476-12.511-6.538-17.03 15.756-15.466 47.432-22.733 88.667-20.048 8.23.536 16.732 1.457 25.442 2.73-4.9 19.345-8.667 40.103-11.219 61.805-28.947 17.894-54.571 37.496-75.393 57.769-20.209-21.785-33.175-42.978-37.46-61.369zm110.945 121.646c-22.034-14.315-41.876-29.657-58.879-45.614-1.401-1.315-2.768-2.629-4.119-3.942 17.673-17.212 39-33.953 63.004-49.539-1.342 16.149-2.03 32.725-2.03 49.544 0 16.852.689 33.422 2.024 49.551zm-61.847 101.59c-5.784 0-10.49-4.71-10.49-10.5 0-5.789 4.706-10.499 10.49-10.499s10.49 4.71 10.49 10.499c0 5.79-4.706 10.5-10.49 10.5zm24.441-17.725c-3.122-10.551-12.895-18.274-24.442-18.274-8.174 0-15.456 3.873-20.124 9.876-13.249-5.41-22.307-13.184-26.96-23.165-10.219-21.926 2.04-54.425 33.633-89.164.596-.655 1.21-1.309 1.817-1.964 1.422 1.382 2.861 2.765 4.337 4.149 20.198 18.955 44.211 37.047 71.035 53.628 2.544 21.699 6.305 42.422 11.201 61.737-18.062 2.666-35.081 3.772-50.497 3.177zm65.431-5.683c-3.97-15.563-7.208-32.156-9.648-49.434 14.023 8.012 28.701 15.612 43.919 22.712 8.465 3.949 16.947 7.664 25.417 11.156-20.433 6.712-40.533 11.954-59.688 15.566zm162.753.123c-19.263-3.6-39.377-8.849-59.878-15.626 8.512-3.507 17.042-7.245 25.56-11.219 15.235-7.108 29.958-14.735 44.019-22.777-2.433 17.358-5.684 33.986-9.701 49.622zm11.981-68.332c-16.572 9.931-34.213 19.295-52.642 27.893-13.541 6.318-27.207 12.043-40.822 17.155-13.501-5.102-27.096-10.828-40.657-17.155-18.419-8.593-36.014-17.924-52.56-27.835-2.036-19.352-3.102-39.362-3.102-59.581 0-20.345 1.027-40.298 3.02-59.523 16.572-9.931 34.213-19.295 52.642-27.893 13.523-6.309 27.169-12.042 40.766-17.156 13.553 5.111 27.173 10.839 40.713 17.156 18.467 8.616 36.084 18.014 52.579 27.925 2.02 19.263 3.082 39.227 3.082 59.491.001 20.345-1.026 40.299-3.019 59.523zm15.991-9.978c1.342-16.149 2.03-32.725 2.03-49.545 0-16.748-.719-33.315-2.088-49.492 24.289 15.798 45.661 32.616 63.076 49.483-17.676 17.218-39.008 33.963-63.018 49.554zm73.484-60.268c-20.515-19.959-46.114-39.652-75.478-57.809-2.582-21.679-6.369-42.442-11.237-61.732 11.762-1.736 23.091-2.801 33.849-3.17 3.506 9.896 12.952 17.005 24.031 17.005 9.627 0 18.023-5.368 22.359-13.268 16.013 3.743 34.334 11.551 41.928 27.844 10.219 21.926-2.04 54.425-33.634 89.164-.596.656-1.21 1.311-1.818 1.966zm48.851 120.519c-5.784 0-10.49-4.71-10.49-10.499s4.706-10.499 10.49-10.499 10.49 4.71 10.49 10.499-4.706 10.499-10.49 10.499z"/><circle cx="254.803" cy="256" r="7.5"/><ellipse cx="67.874" cy="322.46" rx="7.501" ry="7.5" transform="matrix(1 -.009 .009 1 -2.928 .63)"/><circle cx="272.154" cy="448.85" r="7.5"/><circle cx="231.184" cy="75.29" r="7.5"/><path d="m412.29 349.158c0-4.142-3.358-7.5-7.501-7.5s-7.501 3.358-7.501 7.5 3.358 7.5 7.501 7.5 7.501-3.357 7.501-7.5z"/></g></svg>