<svg id="Capa_1" enable-background="new 0 0 512 512" height="512" viewBox="0 0 512 512" width="512" xmlns="http://www.w3.org/2000/svg"><g><path d="m219.467 173.992c-16.979 0-30.792 13.813-30.792 30.792s13.813 30.792 30.792 30.792 30.792-13.813 30.792-30.792-13.814-30.792-30.792-30.792zm0 46.585c-8.708 0-15.792-7.084-15.792-15.792s7.084-15.792 15.792-15.792 15.792 7.084 15.792 15.792c0 8.707-7.084 15.792-15.792 15.792z"/><path d="m512 400.324c0-8.143-3.172-15.808-8.945-21.594-4.833-4.822-10.996-7.822-17.654-8.674v-9.936c0-23.528-15.97-43.385-37.635-49.332-5.566-16.181-21.034-27.482-38.494-27.482h-52.617l-5.685-37.948c-2.14-14.299-9.353-27.375-20.314-36.822-3.694-3.178-7.73-5.866-12.044-8.058l12.782-38.358h51.219c8.818 0 17.112-3.437 23.354-9.677 6.239-6.24 9.676-14.534 9.676-23.354 0-18.213-14.816-33.03-33.029-33.03h-21.214v-9.99h52.834c13.618 0 24.698-11.08 24.698-24.699s-11.08-24.699-24.698-24.699h-52.834v-8.871c0-4.142-3.357-7.5-7.5-7.5s-7.5 3.358-7.5 7.5v8.872h-52.837c-13.619 0-24.699 11.08-24.699 24.699s11.08 24.699 24.699 24.699h52.837v9.99h-168.83c-4.143 0-7.5 3.358-7.5 7.5s3.357 7.5 7.5 7.5h205.04c9.941 0 18.029 8.088 18.029 18.03 0 4.813-1.876 9.34-5.282 12.747-3.408 3.407-7.935 5.284-12.747 5.284h-326.29c-9.942 0-18.03-8.088-18.03-18.03 0-4.812 1.876-9.339 5.283-12.747 3.406-3.407 7.934-5.283 12.747-5.283h91.25c4.143 0 7.5-3.358 7.5-7.5s-3.357-7.5-7.5-7.5h-55.04v-9.99h52.839c13.619 0 24.699-11.08 24.699-24.699s-11.08-24.699-24.699-24.699h-52.839v-8.873c0-4.142-3.357-7.5-7.5-7.5s-7.5 3.358-7.5 7.5v8.872h-52.831c-13.619-.001-24.699 11.079-24.699 24.699s11.08 24.699 24.699 24.699h52.831v9.99h-21.21c-8.82 0-17.114 3.437-23.354 9.677-6.239 6.241-9.676 14.534-9.676 23.353 0 18.213 14.817 33.03 33.03 33.03h51.22l12.781 38.354c-4.302 2.186-8.338 4.875-12.042 8.062-10.964 9.441-18.182 22.517-20.322 36.82l-8.714 58.187h-19.759c-12.435 0-22.551 10.116-22.551 22.55s10.116 22.55 22.551 22.55h23.589c19.962 0 37.243-14.885 40.196-34.622l9.291-61.987c.566-3.774 2.466-7.1 5.247-9.45 9.862 12.317 24.948 19.866 41.405 19.866h80.508c16.456 0 31.542-7.548 41.403-19.864 2.779 2.346 4.681 5.672 5.252 9.446l4.681 31.273h-60.365c-17.455 0-32.92 11.3-38.49 27.48-21.664 5.946-37.632 25.804-37.632 49.333v9.939c-14.986 1.936-26.605 14.765-26.605 30.265 0 8.156 3.179 15.827 8.949 21.598 4.827 4.827 10.991 7.83 17.656 8.682v9.937c0 28.21 22.945 51.16 51.149 51.16h159.522c4.143 0 7.5-3.358 7.5-7.5s-3.357-7.5-7.5-7.5h-159.52c-19.933 0-36.149-16.221-36.149-36.16v-32.711h84.885c4.143 0 7.5-3.358 7.5-7.5s-3.357-7.5-7.5-7.5h-84.886v-32.708c0-19.939 16.217-36.16 36.149-36.16h208.521c19.938 0 36.16 16.221 36.16 36.16v32.708h-84.889c-4.143 0-7.5 3.358-7.5 7.5s3.357 7.5 7.5 7.5h84.889v32.711c0 19.939-16.222 36.16-36.16 36.16h-19c-4.143 0-7.5 3.358-7.5 7.5s3.357 7.5 7.5 7.5h19c28.21 0 51.16-22.95 51.16-51.16v-9.941c14.984-1.938 26.6-14.77 26.6-30.274zm-228.136-338.953c0-5.348 4.351-9.699 9.699-9.699h120.671c5.348 0 9.698 4.351 9.698 9.699s-4.351 9.699-9.698 9.699h-120.671c-5.348 0-9.699-4.351-9.699-9.699zm-268.864 0c0-5.348 4.351-9.699 9.699-9.699h120.67c5.349 0 9.699 4.351 9.699 9.699s-4.351 9.699-9.699 9.699h-120.67c-5.348 0-9.699-4.351-9.699-9.699zm152.521 349.944c-2.938-2.938-4.557-6.842-4.557-10.991 0-7.202 4.939-13.257 11.605-15.004v14.95c0 .02-.003.039-.003.058s.003.039.003.058v14.958c-2.641-.686-5.068-2.049-7.048-4.029zm-49.794-161.504-9.291 61.989c-1.864 12.453-12.768 21.844-25.362 21.844h-23.59c-4.163 0-7.551-3.387-7.551-7.55s3.388-7.55 7.551-7.55h23.589c5.155 0 9.64-3.847 10.437-8.988l9.281-61.977c1.609-10.75 7.034-20.578 15.273-27.672 2.209-1.9 4.574-3.564 7.068-4.993l3.752 11.26c.383 1.149.81 2.273 1.264 3.381-6.62 4.682-11.172 11.927-12.421 20.256zm141.994-2.36h-80.508c-16.405 0-30.912-10.457-36.098-26.02l-19.764-59.311h192.23l-19.764 59.311c-5.185 15.563-19.692 26.02-36.096 26.02zm61.488 2.351c-1.26-8.331-5.813-15.57-12.426-20.245.455-1.109.882-2.234 1.265-3.384l3.751-11.258c2.502 1.431 4.867 3.093 7.067 4.987 8.237 7.1 13.659 16.929 15.269 27.678l5.353 35.727h-15.264zm-70.517 48.504h158.579c8.411 0 16.082 4.155 20.811 10.654h-200.196c4.729-6.499 12.398-10.654 20.806-10.654zm234.708 117.03v-30.021c2.642.687 5.07 2.048 7.048 4.021 2.936 2.942 4.552 6.844 4.552 10.987 0 7.206-4.936 13.263-11.6 15.013z"/><path d="m317.425 375.015-9.043 27.22-9.512-27.399c-1.358-3.913-5.63-5.985-9.545-4.626-3.913 1.358-5.983 5.632-4.625 9.545l15.769 45.428c1.21 3.404 4.438 5.68 8.047 5.68h.059c3.632-.025 6.857-2.353 8.043-5.84l15.042-45.277c1.307-3.931-.821-8.176-4.753-9.482-3.928-1.308-8.177.819-9.482 4.751z"/><path d="m375.681 389.267c0-10.737-9.039-19.472-20.149-19.472h-12.242c-1.993 0-3.904.793-5.312 2.206-1.407 1.412-2.195 3.326-2.188 5.319 0 .001-.016 46.042-.016 46.042 0 4.142 3.357 7.5 7.5 7.5s7.5-3.358 7.5-7.5v-8.426l11.776 13.381c1.482 1.685 3.553 2.545 5.633 2.545 1.76 0 3.527-.616 4.952-1.87 3.109-2.736 3.411-7.476.675-10.585l-10.028-11.394c7.004-3.054 11.899-9.851 11.899-17.746zm-20.15-4.472c2.743 0 5.149 2.09 5.149 4.472 0 2.383-2.406 4.473-5.149 4.473-1.141 0-2.883.006-4.697.014-.008-1.74-.018-7.126-.021-8.958h4.718z"/></g></svg>