<svg id="Layer_1" enable-background="new 0 0 512 512" height="512" viewBox="0 0 512 512" width="512" xmlns="http://www.w3.org/2000/svg"><g><path d="m377.725 434.813c-51.892 12.114-107.132 16.007-164.178 11.576-4.124-.327-7.738 2.767-8.059 6.896s2.767 7.737 6.896 8.059c15.6 1.212 31.066 1.817 46.381 1.817 42.194 0 83.197-4.596 122.369-13.741 4.034-.941 6.54-4.976 5.599-9.009-.941-4.032-4.977-6.538-9.008-5.598z"/><path d="m178.136 442.518c-25.069-3.56-40.286-7.572-40.565-7.646-3.999-1.069-8.113 1.304-9.184 5.306-1.071 4.001 1.304 8.113 5.305 9.185.648.173 16.173 4.292 42.335 8.008.358.051.713.075 1.064.075 3.675 0 6.885-2.703 7.416-6.446.582-4.103-2.27-7.899-6.371-8.482z"/><path d="m319.357 411.177c4.113-.483 7.056-4.211 6.571-8.325-.484-4.113-4.216-7.062-8.325-6.571-66.166 7.787-119.252.129-119.915.03-4.096-.604-7.914 2.215-8.524 6.312-.611 4.097 2.215 7.913 6.311 8.524 1.477.221 25.232 3.673 60.892 3.673 18.323-.001 39.792-.913 62.99-3.643z"/><path d="m489.398 187.292c-2.419-3.363-7.105-4.128-10.468-1.712-3.363 2.418-4.13 7.104-1.712 10.468 12.941 18.002 19.782 39.276 19.782 61.524 0 58.184-47.335 105.519-105.518 105.519s-105.519-47.335-105.519-105.519 47.336-105.519 105.519-105.519c23.139 0 45.103 7.349 63.515 21.25 3.31 2.498 8.01 1.838 10.505-1.466 2.496-3.306 1.84-8.009-1.466-10.505-9.875-7.456-20.652-13.239-32.033-17.302l-70.713-83.9c-.927-1.094-9.45-10.699-23.238-11.268-10.025-.412-19.77 4.044-28.975 13.247-2.929 2.93-2.929 7.678 0 10.607 2.93 2.928 7.678 2.928 10.607 0 6.067-6.066 12.017-9.032 17.609-8.872 7.408.236 12.539 5.968 12.541 5.967l57.556 68.289c-5.234-.685-10.542-1.049-15.909-1.049-30.136 0-57.724 11.119-78.877 29.469-7.531-11.088-24.467-28.477-56.669-28.477-32.132 0-49.066 17.314-56.621 28.405-21.143-18.307-48.698-29.397-78.794-29.397-5.412 0-10.771.365-16.054 1.066l57.514-68.24c.051-.058 5.184-5.797 12.597-6.033 5.639-.171 11.544 2.806 17.61 8.872 2.929 2.928 7.678 2.928 10.606 0 2.929-2.93 2.929-7.678 0-10.607-9.203-9.202-18.958-13.651-28.975-13.247-13.788.568-22.312 10.174-23.252 11.282l-70.752 83.945c-15.094 5.406-29.055 13.832-41.096 24.974-17.139.457-27.815 1.084-28.064 1.099-3.097.187-5.759 2.26-6.698 5.217-.346 1.091-8.115 26.198-.902 55.163-2.02 8.818-3.053 17.905-3.053 27.028 0 37.413 16.943 72.077 46.484 95.104 1.37 1.068 2.994 1.585 4.605 1.585 2.232 0 4.442-.992 5.92-2.889 2.547-3.268 1.963-7.98-1.304-10.526-25.869-20.165-40.706-50.518-40.706-83.274 0-6.1.524-12.179 1.557-18.146 17.711.852 36.404 1.285 55.734 1.285 1.598 0 3.201-.003 4.808-.009 4.142-.016 7.488-3.386 7.473-7.527-.015-4.133-3.37-7.473-7.499-7.473-.009 0-.019 0-.028 0-20.869.076-41.029-.35-60.016-1.268-3.635-16.806-1.532-32.056.022-39.581 15.47-.728 61.535-2.44 112.128.003 3.635 16.81 1.531 32.061-.022 39.584-3.315.158-8.027.36-13.857.557-4.14.14-7.383 3.608-7.244 7.748.139 4.141 3.619 7.415 7.747 7.244 12.237-.412 19.451-.843 19.752-.861 3.097-.187 5.759-2.261 6.697-5.217.359-1.131 8.691-28.043.064-58.317-.877-3.078-3.612-5.261-6.808-5.434-25.985-1.403-51.044-1.689-71.811-1.526 16.827-10.788 36.413-16.582 56.82-16.582 58.183 0 105.518 47.335 105.518 105.519s-47.335 105.519-105.518 105.519c-12.363 0-24.468-2.116-35.976-6.289-3.892-1.408-8.195.601-9.607 4.494-1.412 3.895.6 8.195 4.494 9.607 13.153 4.77 26.977 7.188 41.09 7.188 66.454 0 120.518-54.064 120.518-120.519 0-30.863-11.666-59.049-30.814-80.393 4.6-7.705 17.695-24.133 45.711-24.133 28.128 0 41.212 16.557 45.763 24.222-19.101 21.333-30.736 49.484-30.736 80.305 0 66.454 54.064 120.519 120.519 120.519 66.454 0 120.518-54.064 120.518-120.519.003-25.407-7.812-49.71-22.599-70.278z"/><path d="m454.5 250.072c-4.143 0-7.5 3.357-7.5 7.5 0 30.613-24.905 55.519-55.518 55.519-4.143 0-7.5 3.357-7.5 7.5s3.357 7.5 7.5 7.5c38.883 0 70.518-31.635 70.518-70.519 0-4.142-3.357-7.5-7.5-7.5z"/><path d="m191.04 257.572c0-4.143-3.358-7.5-7.5-7.5s-7.5 3.357-7.5 7.5c0 30.613-24.905 55.519-55.518 55.519-4.142 0-7.5 3.357-7.5 7.5s3.358 7.5 7.5 7.5c38.884 0 70.518-31.635 70.518-70.519z"/><circle cx="37.107" cy="204.642" r="7.5"/></g></svg>