<svg id="Layer_1" enable-background="new 0 0 512 512" height="512" viewBox="0 0 512 512" width="512" xmlns="http://www.w3.org/2000/svg"><g><path d="m74.713 453.354c-3.975-1.181-8.147 1.079-9.328 5.049-3.971 13.335-5.984 28.844-5.984 46.095 0 4.142 3.358 7.5 7.5 7.5s7.5-3.357 7.5-7.5c0-15.801 1.803-29.869 5.36-41.816 1.182-3.969-1.079-8.145-5.048-9.328z"/><path d="m432.279 433.215c-3.588 2.069-4.82 6.655-2.75 10.243 9.081 15.748 13.495 35.714 13.495 61.041 0 4.142 3.358 7.5 7.5 7.5s7.5-3.357 7.5-7.5c0-28.028-5.07-50.446-15.501-68.533-2.07-3.589-6.656-4.822-10.244-2.751z"/><path d="m419.167 409.224c-6.655-5.19-14.354-9.834-23.393-14.101 7.514-21.804 5.103-44.685 1.481-60.704 26.698-1.364 50.802 4.436 51.066 4.5.592.146 1.194.218 1.793.218 1.522 0 3.025-.464 4.296-1.353 1.771-1.237 2.923-3.179 3.159-5.328 9.4-85.481 7.155-153.948-6.672-203.497-1.113-3.989-5.25-6.321-9.24-5.208s-6.322 5.25-5.208 9.239c12.874 46.131 15.251 109.898 7.08 189.642-10.562-1.898-29.803-4.483-50.422-2.988-.432-1.274-.829-2.378-1.17-3.295-5.527-17.592-24.406-23.687-40.861-25.537 11.235-18.996 18.555-41.229 21.199-64.802 6.178-1.325 9.95-2.427 10.303-2.531 2.896-.856 4.996-3.365 5.329-6.367 5.243-47.344.213-92.325-.003-94.217-.367-3.204-2.742-5.815-5.897-6.483-1.442-.305-33.559-7.031-77.801-10.316 1.104-3.579 2.047-7.372 2.813-11.4.774-4.069-1.896-7.996-5.966-8.77-4.073-.771-7.996 1.897-8.77 5.966-7.462 39.218-34.059 51.516-64.855 65.755-29.832 13.793-63.644 29.427-80.677 73.073-.488 1.25-.631 2.607-.416 3.932 3.311 20.339 10.217 39.532 20.038 56.159-16.515 1.852-35.48 7.979-40.939 25.713-.333.906-.715 1.987-1.131 3.226-18.365-1.189-36.586 1.387-46.299 3.143-11.51-44.359-16.091-85.657-13.618-122.855.275-4.133-2.853-7.706-6.986-7.98-4.132-.296-7.707 2.852-7.981 6.986-2.709 40.751 2.647 86.028 15.919 134.572.908 3.323 3.924 5.523 7.232 5.523.566 0 1.142-.064 1.716-.199.255-.059 22.909-5.288 45.915-4.383-3.56 16.003-5.886 38.807 1.607 60.543-16.386 7.716-28.597 16.778-38.073 28.19-2.646 3.187-2.208 7.915.979 10.561 1.4 1.163 3.098 1.729 4.787 1.729 2.153 0 4.291-.923 5.774-2.709 9.1-10.959 21.459-19.496 38.888-26.861.072-.028.143-.058.214-.088 3.748-1.6 5.532-5.902 4.018-9.685-.05-.125-.103-.247-.159-.368-6.069-13.398-7.029-28.091-5.953-41.002 6.294 11.403 16.025 23.358 28.788 35.114 10.873 10.015 23.29 19.216 36.599 27.242-3.127 14.023-9.276 51.57 3.512 89.663 1.053 3.135 3.975 5.115 7.109 5.115.791 0 1.596-.126 2.388-.392 3.927-1.318 6.042-5.57 4.723-9.497-10.348-30.827-6.769-62.11-3.964-77.172 14.595 7.584 29.936 13.725 45.258 17.997.659.184 1.337.275 2.015.275s1.355-.092 2.015-.275c15.345-4.279 30.709-10.431 45.322-18.03 2.806 15.048 6.399 46.354-3.957 77.205-1.318 3.927.796 8.178 4.723 9.497.792.266 1.596.392 2.388.392 3.134 0 6.057-1.98 7.109-5.115 12.799-38.127 6.628-75.707 3.504-89.7 13.285-8.017 25.681-17.205 36.536-27.204 12.457-11.474 22.025-23.137 28.329-34.292 1.285 12.728.611 27.107-5.352 40.236-.022.049-.05.111-.071.161-.786 1.834-.809 3.906-.063 5.758.746 1.851 2.199 3.328 4.038 4.105 10.93 4.617 19.416 9.416 26.708 15.103 1.37 1.068 2.995 1.586 4.607 1.586 2.232 0 4.44-.991 5.919-2.887 2.549-3.267 1.967-7.98-1.299-10.528zm-185.444-237.962c24.876-11.502 50.417-23.311 64.538-50.547 35.219 2.363 63.823 7.197 75.263 9.325 1.098 12.677 3.282 45.746.001 80.294-17.111 4.088-75.849 15.29-109.963-13.627-2.798-2.373-6.902-2.373-9.7 0-10.773 9.133-35.254 22.942-81.855 18.327 16.056-22.663 39.188-33.357 61.716-43.772zm-72.237 63.015c.722-1.752 1.476-3.451 2.26-5.099 25.189 3.208 65.687 3.916 94.969-17.235 17.315 12.484 40.851 18.971 68.828 18.971 2.865 0 5.78-.068 8.736-.205 7.437-.344 14.39-1.077 20.533-1.951-3.912 27.906-14.997 53.397-31.698 72.572-18.309 21.021-41.891 32.598-66.402 32.598-46.405 0-87.033-41.782-97.226-99.651zm139.687 129.718c-5.796 6.263-19.528 17.714-42.461 17.714-22.963 0-36.642-11.389-42.441-17.673 4.045-5.922 6.935-12.997 8.235-21.603 10.995 4.271 22.529 6.495 34.207 6.495 11.738 0 23.259-2.209 34.223-6.463 1.309 8.573 4.199 15.624 8.237 21.53zm-162.059-40.041c1.987-14.522 20.43-18.353 36.944-18.808 2.872 3.726 5.913 7.266 9.111 10.597 7.642 7.96 16.055 14.589 24.992 19.777-1.349 22.459-15.008 32.336-40.637 41.833-20.649-19.522-32.263-39.852-30.41-53.399zm119.598 103.961c-27.131-7.872-54.192-21.92-76.339-39.461 8.651-3.574 16.839-7.798 23.697-13.417 8.146 8.474 25.232 21.67 52.641 21.67 27.449 0 44.545-13.235 52.676-21.707 6.864 5.617 15.056 9.84 23.711 13.415-22.154 17.56-49.235 31.623-76.386 39.5zm89.229-50.602c-25.614-9.493-39.284-19.36-40.672-41.76 10.57-6.147 20.408-14.329 29.157-24.373 1.703-1.955 3.352-3.968 4.949-6.035 16.512.456 34.949 4.289 36.936 18.808 1.851 13.539-9.746 33.85-30.37 53.36z"/><path d="m135.546 478.893c-3.818-1.606-8.215.19-9.819 4.009-2.984 7.102-2.799 19.411-2.732 21.808.114 4.068 3.448 7.287 7.493 7.287.07 0 .14-.001.21-.003 4.139-.114 7.402-3.563 7.291-7.701-.125-4.625.279-12.515 1.567-15.581 1.604-3.819-.191-8.216-4.01-9.819z"/><path d="m381.878 478.893c-3.819 1.604-5.614 6-4.01 9.819 1.288 3.065 1.691 10.956 1.567 15.581-.114 4.138 3.147 7.587 7.287 7.703.072.002.143.003.214.003 4.044 0 7.379-3.221 7.493-7.289.067-2.396.252-14.706-2.732-21.808-1.605-3.82-6.003-5.62-9.819-4.009z"/><path d="m233.379 289.818c7.077 5.941 16.073 9.213 25.333 9.213s18.256-3.271 25.333-9.213c3.172-2.664 3.584-7.394.921-10.566-2.664-3.173-7.395-3.585-10.567-.922-4.378 3.677-9.95 5.701-15.688 5.701s-11.309-2.024-15.688-5.701c-3.172-2.661-7.903-2.252-10.567.922-2.661 3.172-2.249 7.902.923 10.566z"/><path d="m255.11 253.942c.71-.596 1.912-1.307 3.602-1.307s2.892.711 3.602 1.307c1.405 1.18 3.117 1.756 4.818 1.756 2.14 0 4.265-.911 5.748-2.678 2.664-3.173 2.25-7.903-.922-10.566-3.701-3.107-8.406-4.818-13.247-4.818s-9.545 1.711-13.247 4.818c-3.172 2.663-3.585 7.393-.922 10.566 2.664 3.172 7.395 3.584 10.568.922z"/><path d="m60.037 171.7c.498.1.993.147 1.481.147 3.501 0 6.632-2.464 7.346-6.028 8.583-42.849 27.456-78.134 56.096-104.874 24.783-23.139 55.363-38.274 88.435-43.769 24.524-4.072 48.4-2.417 69.046 4.791 20.689 7.223 36.596 19.583 46 35.745 1.809 3.11 5.571 4.496 8.966 3.305 36.759-12.905 67.736 1.489 87.225 40.521 1.85 3.704 6.354 5.21 10.06 3.359s5.21-6.354 3.36-10.06c-21.963-43.989-58.138-61.899-99.887-49.808-11.423-16.766-28.854-29.57-50.779-37.224-23.014-8.034-49.449-9.909-76.449-5.426-62.326 10.355-136.242 57.955-156.781 160.495-.813 4.062 1.82 8.013 5.881 8.826z"/><ellipse cx="315.441" cy="151.799" rx="7.5" ry="7.501" transform="matrix(.009 -1 1 .009 160.673 465.795)"/><ellipse cx="350.421" cy="151.799" rx="7.5" ry="7.501" transform="matrix(.009 -1 1 .009 195.323 500.773)"/></g></svg>