<svg id="Capa_1" enable-background="new 0 0 512 512" height="512" viewBox="0 0 512 512" width="512" xmlns="http://www.w3.org/2000/svg"><g><path d="m490.231 187.893c-6.404-46.076-28.044-89.544-61.107-122.607-40.729-40.74-94.892-63.177-152.512-63.177-.002 0-.004 0-.005 0h-34.652c-.002 0-.003 0-.005 0-51.328 0-101.057 18.337-140.027 51.633-37.892 32.374-63.465 76.922-72.225 125.668-18.279 17.328-29.698 41.825-29.698 68.941v169.39c0 50.812 41.339 92.151 92.151 92.151h93.881c20.85 0 40.519-6.794 56.88-19.648 7.706-6.054 18.47-6.054 26.176 0 16.361 12.854 36.03 19.648 56.88 19.648h93.881c50.812 0 92.151-41.339 92.151-92.151v-169.39c0-22.947-8.177-44.019-21.769-60.458zm-18.512-17.167c-9.11-6.443-19.399-11.322-30.473-14.249-24.717-66.235-86.792-111.208-157.14-114.204v-25.013c50.8 1.853 98.285 22.497 134.41 58.632 26.119 26.118 44.577 59.21 53.203 94.834zm-202.613-153.618v135.807h-19.652v-135.807zm15 40.182c61.157 2.85 115.391 40.381 139.799 96.295-2.288-.166-4.596-.254-6.925-.254h-132.874zm-172.439 7.856c34.355-29.354 77.703-46.2 122.788-47.886v25.03c-27.707 1.189-54.856 8.931-78.947 22.607-3.602 2.045-4.865 6.623-2.82 10.225 1.381 2.433 3.918 3.799 6.529 3.799 1.255 0 2.527-.315 3.696-.979 21.838-12.397 46.428-19.457 71.542-20.635v96.026h-139.435c-.082 0-.164.003-.247.003 10.016-22.78 25.258-43.044 44.56-59.088 3.186-2.648 3.622-7.376.974-10.562s-7.376-3.621-10.562-.974c-23.21 19.291-41.047 44.173-51.818 72.164-10.662 1.945-20.708 5.675-29.818 10.868 10.445-38.915 32.575-74.127 63.558-100.598zm385.333 352.595c0 42.541-34.61 77.151-77.151 77.151h-93.881c-17.456 0-33.921-5.686-47.613-16.443-6.581-5.17-14.468-7.756-22.354-7.756s-15.773 2.585-22.354 7.756c-13.692 10.757-30.157 16.443-47.613 16.443h-93.883c-42.541 0-77.151-34.61-77.151-77.151v-91.014c0-44.122 35.896-80.018 80.018-80.018h321.964c44.122 0 80.018 35.896 80.018 80.018zm-80.018-186.032h-321.964c-33.558 0-63.108 17.487-80.018 43.826v-27.184c0-44.123 35.897-80.02 80.02-80.02h321.96c44.123 0 80.02 35.897 80.02 80.02v27.184c-16.91-26.34-46.46-43.826-80.018-43.826z"/><path d="m416.98 270.528h-321.96c-30.989 0-56.2 25.211-56.2 56.2v91.01c0 29.406 23.924 53.33 53.33 53.33h93.88c12.074 0 23.452-3.926 32.903-11.352 10.532-8.272 23.696-12.828 37.067-12.828s26.536 4.556 37.066 12.827c9.452 7.427 20.83 11.353 32.904 11.353h38.84c4.142 0 7.5-3.358 7.5-7.5s-3.358-7.5-7.5-7.5h-38.84c-8.68 0-16.853-2.817-23.637-8.148-13.163-10.338-29.617-16.032-46.333-16.032s-33.17 5.694-46.334 16.033c-6.783 5.33-14.957 8.147-23.636 8.147h-93.88c-21.135 0-38.33-17.195-38.33-38.33v-70.108h404.36v70.108c0 21.135-17.195 38.33-38.33 38.33h-25.04c-4.142 0-7.5 3.358-7.5 7.5s3.358 7.5 7.5 7.5h25.04c29.406 0 53.33-23.924 53.33-53.33v-91.01c0-30.988-25.211-56.2-56.2-56.2zm41.2 62.103h-404.36v-5.902c0-22.718 18.482-41.2 41.2-41.2h321.96c22.718 0 41.2 18.482 41.2 41.2z"/><path d="m115.116 371.336c1.306-3.931-.822-8.176-4.753-9.482-3.931-1.307-8.176.823-9.482 4.753l-8.989 27.06-9.455-27.239c-1.358-3.914-5.634-5.985-9.545-4.626-3.913 1.358-5.984 5.632-4.626 9.545l15.716 45.277c1.209 3.402 4.437 5.677 8.043 5.677h.059c3.63-.025 6.854-2.351 8.041-5.838z"/><path d="m158.992 380.82c0-10.715-9.02-19.432-20.107-19.432h-12.201c-1.994 0-3.905.794-5.312 2.206s-2.195 3.326-2.188 5.32c0 .001-.015 45.888-.015 45.888 0 4.142 3.358 7.5 7.5 7.5s7.5-3.358 7.5-7.5v-8.331l11.693 13.286c1.482 1.685 3.552 2.545 5.633 2.545 1.76 0 3.527-.616 4.952-1.87 3.109-2.737 3.412-7.476.675-10.585l-9.973-11.331c6.972-3.055 11.843-9.829 11.843-17.696zm-20.108-4.432c2.721 0 5.107 2.071 5.107 4.432s-2.387 4.432-5.107 4.432c-1.132 0-2.858.006-4.657.014-.008-1.725-.017-7.062-.022-8.878z"/><path d="m434.788 362.058c-3.772-1.712-8.217-.042-9.929 3.73l-18.409 40.563c-1.712 3.772-.042 8.217 3.73 9.929 1.005.456 2.059.672 3.095.672 2.852 0 5.579-1.636 6.834-4.403l18.409-40.563c1.712-3.771.042-8.216-3.73-9.928z"/><path d="m394.171 412.55 18.409-40.563c1.712-3.772.042-8.217-3.73-9.929s-8.218-.042-9.929 3.73l-18.409 40.563c-1.712 3.772-.042 8.217 3.73 9.929 1.005.456 2.059.672 3.095.672 2.852.001 5.579-1.635 6.834-4.402z"/><path d="m382.912 362.058c-3.772-1.712-8.218-.042-9.929 3.73l-18.409 40.563c-1.712 3.772-.042 8.217 3.73 9.929 1.005.456 2.059.672 3.095.672 2.852 0 5.579-1.636 6.834-4.403l18.409-40.563c1.712-3.771.042-8.216-3.73-9.928z"/><path d="m90.595 299.738c-4.142 0-7.5 3.358-7.5 7.5v.5c0 4.142 3.358 7.5 7.5 7.5s7.5-3.358 7.5-7.5v-.5c0-4.142-3.358-7.5-7.5-7.5z"/><path d="m421.405 299.738c-4.142 0-7.5 3.358-7.5 7.5v.5c0 4.142 3.358 7.5 7.5 7.5s7.5-3.358 7.5-7.5v-.5c0-4.142-3.358-7.5-7.5-7.5z"/><path d="m90.595 430.708c-4.142 0-7.5 3.358-7.5 7.5v.5c0 4.142 3.358 7.5 7.5 7.5s7.5-3.358 7.5-7.5v-.5c0-4.143-3.358-7.5-7.5-7.5z"/><path d="m413.905 438.208v.5c0 4.142 3.358 7.5 7.5 7.5s7.5-3.358 7.5-7.5v-.5c0-4.142-3.358-7.5-7.5-7.5s-7.5 3.357-7.5 7.5z"/></g></svg>