<?xml version="1.0" encoding="UTF-8" standalone="no"?>
<!-- Created with Inkscape (http://www.inkscape.org/) -->

<svg
   xmlns:dc="http://purl.org/dc/elements/1.1/"
   xmlns:cc="http://creativecommons.org/ns#"
   xmlns:rdf="http://www.w3.org/1999/02/22-rdf-syntax-ns#"
   xmlns:svg="http://www.w3.org/2000/svg"
   xmlns="http://www.w3.org/2000/svg"
   xmlns:sodipodi="http://sodipodi.sourceforge.net/DTD/sodipodi-0.dtd"
   xmlns:inkscape="http://www.inkscape.org/namespaces/inkscape"
   width="196"
   height="48"
   viewBox="0 0 51.858332 12.7"
   version="1.1"
   id="svg8"
   inkscape:version="0.92.5 (2060ec1f9f, 2020-04-08)"
   sodipodi:docname="signature.svg">
  <defs
     id="defs2" />
  <sodipodi:namedview
     id="base"
     pagecolor="#ffffff"
     bordercolor="#666666"
     borderopacity="1.0"
     inkscape:pageopacity="0.0"
     inkscape:pageshadow="2"
     inkscape:zoom="5.6"
     inkscape:cx="10.825771"
     inkscape:cy="12.132903"
     inkscape:document-units="mm"
     inkscape:current-layer="layer1"
     showgrid="false"
     units="px"
     fit-margin-top="0"
     fit-margin-left="0"
     fit-margin-right="0"
     fit-margin-bottom="0"
     inkscape:window-width="1920"
     inkscape:window-height="1136"
     inkscape:window-x="0"
     inkscape:window-y="27"
     inkscape:window-maximized="1" />
  <metadata
     id="metadata5">
    <rdf:RDF>
      <cc:Work
         rdf:about="">
        <dc:format>image/svg+xml</dc:format>
        <dc:type
           rdf:resource="http://purl.org/dc/dcmitype/StillImage" />
        <dc:title />
      </cc:Work>
    </rdf:RDF>
  </metadata>
  <g
     inkscape:label="Layer 1"
     inkscape:groupmode="layer"
     id="layer1"
     transform="translate(18.369642,-30.602381)">
    <g
       id="g840">
      <rect
         inkscape:export-ydpi="192"
         inkscape:export-xdpi="192"
         y="30.602381"
         x="-18.369642"
         height="12.7"
         width="51.858334"
         id="rect866"
         style="fill:#decd87;fill-opacity:0;stroke-width:0.2648457" />
      <g
         id="g895"
         transform="translate(-62.02098,-162.89338)">
        <g
           aria-label="Heuriskel"
           style="font-style:normal;font-variant:normal;font-weight:normal;font-stretch:normal;font-size:8.4392004px;line-height:1.25;font-family:Vidaloka;-inkscape-font-specification:Vidaloka;font-variant-ligatures:normal;font-variant-caps:normal;font-variant-numeric:normal;font-feature-settings:normal;text-align:end;letter-spacing:0px;word-spacing:0px;writing-mode:lr-tb;text-anchor:end;fill:#263238;fill-opacity:1;stroke:none;stroke-width:0.79117501"
           id="text882">
          <path
             d="m 58.129397,202.89713 v -0.18544 l 0.634588,-0.0412 v -5.42697 l -0.634588,-0.0412 v -0.18543 h 2.324077 v 0.18543 l -0.634589,0.0412 v 2.51363 l 2.216939,-0.033 v -2.48066 l -0.634589,-0.0412 v -0.18543 h 2.324077 v 0.18543 l -0.634588,0.0412 v 5.42697 l 0.634588,0.0412 v 0.18544 h -2.324077 v -0.18544 l 0.634589,-0.0412 v -2.6661 h -2.216939 v 2.6661 l 0.634589,0.0412 v 0.18544 z"
             style="fill:#263238;fill-opacity:1;stroke-width:0.79117501"
             id="path823" />
          <path
             d="m 64.244521,200.82853 q 0,-0.32141 0.06181,-0.62634 0.06181,-0.30906 0.201915,-0.59339 0.140104,-0.28432 0.342018,-0.4986 0.201914,-0.21428 0.498605,-0.34202 0.300811,-0.13186 0.663433,-0.13186 0.342019,0 0.613985,0.0989 0.271967,0.0948 0.453278,0.26785 0.18131,0.17307 0.300811,0.42443 0.1195,0.24725 0.168949,0.53982 0.05357,0.28844 0.05357,0.63458 l -0.111259,0.10302 h -2.192214 v 0.25136 q 0,1.79663 1.021934,1.79663 0.725244,0 1.157918,-0.72524 l 0.160707,0.0989 q -0.531571,0.8942 -1.512298,0.8942 -0.947762,0 -1.417522,-0.58514 -0.465639,-0.58514 -0.465639,-1.60708 z m 1.0549,-0.30905 1.330987,-0.0536 q 0.01236,-0.21016 0.01236,-0.40383 0,-0.5975 -0.144225,-0.91892 -0.140104,-0.32141 -0.46976,-0.32141 -0.197794,0 -0.342018,0.13186 -0.140104,0.12774 -0.218397,0.37087 -0.07829,0.24312 -0.119501,0.53157 -0.03709,0.28432 -0.04945,0.66343 z"
             style="fill:#263238;fill-opacity:1;stroke-width:0.79117501"
             id="path825" />
          <path
             d="m 68.101499,199.0896 v -0.16895 l 0.861227,-0.0907 0.581019,-0.15246 0.07829,0.1195 v 2.97514 q 0,0.24312 0.04945,0.41619 0.05357,0.17307 0.11538,0.25961 0.06593,0.0824 0.160707,0.13186 0.0989,0.0453 0.152466,0.0536 0.05357,0.004 0.119501,0.004 0.288449,0 0.52745,-0.36262 0.243121,-0.36674 0.243121,-0.89831 v -2.28699 h -0.506846 v -0.16895 l 0.861227,-0.0907 0.581019,-0.15246 0.07417,0.1195 v 3.88994 l 0.424433,0.0412 v 0.16895 h -1.293901 l -0.123621,-0.63459 h -0.01648 q -0.107138,0.15658 -0.201914,0.26784 -0.09478,0.10714 -0.239001,0.23488 -0.144225,0.12362 -0.333777,0.18956 -0.185432,0.0659 -0.399708,0.0659 -0.148346,0 -0.28845,-0.0247 -0.140104,-0.0247 -0.317294,-0.10714 -0.173069,-0.0865 -0.300811,-0.22663 -0.123621,-0.14423 -0.214277,-0.39971 -0.08653,-0.25961 -0.08653,-0.60575 v -2.56719 z"
             style="fill:#263238;fill-opacity:1;stroke-width:0.79117501"
             id="path827" />
          <path
             d="m 72.897997,199.0896 v -0.16895 l 0.861227,-0.0907 0.58102,-0.15246 0.05769,0.1195 v 0.70876 h 0.01648 q 0.08241,-0.16483 0.201915,-0.32142 0.1195,-0.15659 0.259604,-0.27609 0.144225,-0.12362 0.304932,-0.19779 0.160708,-0.0742 0.325536,-0.0742 0.321415,0 0.494484,0.17307 0.17719,0.16895 0.17719,0.45327 0,0.11951 -0.03709,0.22252 -0.03709,0.0989 -0.107138,0.17307 -0.06593,0.0742 -0.164828,0.1195 -0.09478,0.0412 -0.210156,0.0412 -0.123621,0 -0.222518,-0.0412 -0.0989,-0.0412 -0.168949,-0.11126 -0.06593,-0.0701 -0.103018,-0.1607 -0.03709,-0.0948 -0.03709,-0.20192 0,-0.2184 0.09065,-0.32141 v -0.0247 q -0.148345,0.033 -0.29257,0.15659 -0.140103,0.12362 -0.255483,0.3379 -0.11538,0.21015 -0.185432,0.51096 -0.07005,0.2967 -0.07005,0.67168 v 2.05211 l 0.424433,0.0412 v 0.16895 h -1.858437 v -0.16895 l 0.424432,-0.0412 v -3.59737 z"
             style="fill:#263238;fill-opacity:1;stroke-width:0.79117501"
             id="path829" />
          <path
             d="m 76.474768,199.0896 v -0.16895 l 0.861227,-0.0907 0.581019,-0.15246 0.07417,0.1195 v 3.88994 l 0.424433,0.0412 v 0.16895 h -1.858438 v -0.16895 l 0.424433,-0.0412 v -3.59737 z m 0.449157,-1.87492 q 0,-0.11538 0.04121,-0.21428 0.04533,-0.0989 0.1195,-0.17307 0.07417,-0.0742 0.17307,-0.11538 0.0989,-0.0412 0.210156,-0.0412 0.111259,0 0.210156,0.0453 0.0989,0.0412 0.173069,0.11538 0.07829,0.0742 0.119501,0.17307 0.04533,0.0989 0.04533,0.21016 0,0.11125 -0.04533,0.21015 -0.04121,0.0989 -0.11538,0.17719 -0.07417,0.0742 -0.17307,0.1195 -0.0989,0.0412 -0.214276,0.0412 -0.11538,0 -0.214277,-0.0412 -0.0989,-0.0453 -0.173069,-0.1195 -0.07417,-0.0742 -0.11538,-0.17307 -0.04121,-0.0989 -0.04121,-0.21427 z"
             style="fill:#263238;fill-opacity:1;stroke-width:0.79117501"
             id="path831" />
          <path
             d="m 80.381195,202.81883 q 0.46976,0 0.692278,-0.17307 0.226639,-0.17307 0.226639,-0.43267 0,-0.13598 -0.04533,-0.239 -0.04121,-0.10714 -0.140104,-0.20192 -0.09478,-0.0989 -0.255484,-0.19779 -0.156586,-0.10302 -0.391466,-0.23076 -0.206036,-0.1195 -0.436795,-0.24724 -0.230759,-0.13186 -0.428553,-0.30081 -0.193673,-0.17307 -0.325536,-0.39971 -0.127741,-0.22664 -0.127741,-0.54393 0,-0.28021 0.107138,-0.50685 0.107138,-0.22664 0.29669,-0.38323 0.193674,-0.1607 0.457399,-0.24724 0.267845,-0.0865 0.585139,-0.0865 0.239001,0 0.478002,0.0618 0.243121,0.0577 0.436795,0.17719 0.193673,0.1195 0.313173,0.29669 0.1195,0.17719 0.1195,0.41207 0,0.0907 -0.03297,0.17719 -0.02885,0.0865 -0.09066,0.15659 -0.06181,0.0701 -0.152466,0.11538 -0.08653,0.0412 -0.201914,0.0412 -0.239001,0 -0.358501,-0.13186 -0.119501,-0.13186 -0.119501,-0.32142 0,-0.1195 0.03297,-0.20191 0.03297,-0.0865 0.08653,-0.1401 0.05769,-0.0577 0.127741,-0.0824 0.07417,-0.0288 0.148346,-0.0288 h 0.03709 v -0.008 q -0.04121,-0.0659 -0.1195,-0.12363 -0.07829,-0.0618 -0.185432,-0.10713 -0.107138,-0.0495 -0.239001,-0.0783 -0.131862,-0.0288 -0.280208,-0.0288 -0.218397,0 -0.370863,0.0577 -0.152466,0.0577 -0.251363,0.14834 -0.09478,0.0865 -0.140104,0.19368 -0.04533,0.10713 -0.04533,0.20603 0,0.1195 0.03709,0.20604 0.03709,0.0865 0.127742,0.17719 0.09478,0.0865 0.255483,0.18955 0.164828,0.10302 0.412071,0.24724 0.239,0.12362 0.502725,0.26373 0.267846,0.1401 0.490364,0.32553 0.222518,0.18131 0.366743,0.42031 0.148345,0.23488 0.148345,0.55218 0,0.26784 -0.103018,0.49036 -0.0989,0.22252 -0.313173,0.38323 -0.210156,0.1607 -0.539812,0.24724 -0.325536,0.0906 -0.774692,0.0906 -0.214277,0 -0.457398,-0.0536 -0.243122,-0.0536 -0.449157,-0.16895 -0.206035,-0.1195 -0.342018,-0.30494 -0.135984,-0.18955 -0.135984,-0.46151 0,-0.11538 0.03709,-0.22252 0.03709,-0.10714 0.103017,-0.18955 0.07005,-0.0865 0.168949,-0.13599 0.0989,-0.0495 0.226639,-0.0495 0.111259,0 0.197794,0.0412 0.08653,0.0371 0.144224,0.10302 0.06181,0.0618 0.09478,0.14834 0.03297,0.0865 0.03709,0.18544 0,0.11538 -0.04121,0.20603 -0.04121,0.0865 -0.107139,0.14423 -0.06593,0.0577 -0.152466,0.0907 -0.08241,0.0288 -0.164828,0.0288 -0.01648,0 -0.03709,0 -0.01648,0 -0.03297,-0.004 v 0.008 q 0.03709,0.0824 0.111259,0.1607 0.07417,0.0783 0.185432,0.14011 0.11538,0.0618 0.263725,0.10302 0.152466,0.0371 0.333777,0.0371 z"
             style="fill:#263238;fill-opacity:1;stroke-width:0.79117501"
             id="path833" />
          <path
             d="m 82.58165,197.17347 0.861227,-0.0907 0.58102,-0.15246 0.07417,0.1195 v 5.63712 l 0.424433,0.0412 v 0.16895 h -1.858438 v -0.16895 l 0.424433,-0.0412 v -5.35279 l -0.498605,0.008 z m 1.516419,3.57265 v -0.10302 l 1.602954,-1.66888 -0.461519,-0.0453 v -0.16895 h 1.23209 v 0.16895 l -0.465639,0.0453 -1.182642,1.25681 1.656523,2.45594 0.428553,0.0412 v 0.16895 h -1.887282 v -0.16895 l 0.333777,-0.0412 z"
             style="fill:#263238;fill-opacity:1;stroke-width:0.79117501"
             id="path835" />
          <path
             d="m 86.883665,200.82853 q 0,-0.32141 0.06181,-0.62634 0.06181,-0.30906 0.201915,-0.59339 0.140104,-0.28432 0.342018,-0.4986 0.201914,-0.21428 0.498605,-0.34202 0.300811,-0.13186 0.663433,-0.13186 0.342019,0 0.613985,0.0989 0.271967,0.0948 0.453277,0.26785 0.181311,0.17307 0.300812,0.42443 0.1195,0.24725 0.168949,0.53982 0.05357,0.28844 0.05357,0.63458 l -0.111259,0.10302 h -2.192214 v 0.25136 q 0,1.79663 1.021934,1.79663 0.725244,0 1.157918,-0.72524 l 0.160707,0.0989 q -0.531571,0.8942 -1.512298,0.8942 -0.947762,0 -1.417522,-0.58514 -0.465639,-0.58514 -0.465639,-1.60708 z m 1.0549,-0.30905 1.330987,-0.0536 q 0.01236,-0.21016 0.01236,-0.40383 0,-0.5975 -0.144225,-0.91892 -0.140104,-0.32141 -0.46976,-0.32141 -0.197794,0 -0.342018,0.13186 -0.140104,0.12774 -0.218398,0.37087 -0.07829,0.24312 -0.1195,0.53157 -0.03709,0.28432 -0.04945,0.66343 z"
             style="fill:#263238;fill-opacity:1;stroke-width:0.79117501"
             id="path837" />
          <path
             d="m 90.765368,197.34242 v -0.16895 l 0.861227,-0.0907 0.581019,-0.15246 0.07417,0.1195 v 5.63712 l 0.424432,0.0412 v 0.16895 h -1.858437 v -0.16895 l 0.424433,-0.0412 v -5.34455 z"
             style="fill:#263238;fill-opacity:1;stroke-width:0.79117501"
             id="path839" />
        </g>
        <rect
           style="opacity:1;fill:#263238;fill-opacity:1;stroke:none;stroke-width:3.31578684;stroke-linecap:round;stroke-linejoin:round;stroke-miterlimit:4;stroke-dasharray:none;stroke-dashoffset:0;stroke-opacity:1"
           id="rect884"
           width="9.5249996"
           height="9.5249996"
           x="46.454784"
           y="195.08325"
           ry="1.0467033" />
        <g
           aria-label="H"
           style="font-style:normal;font-variant:normal;font-weight:normal;font-stretch:normal;font-size:9.57643986px;line-height:1.25;font-family:Vidaloka;-inkscape-font-specification:Vidaloka;font-variant-ligatures:normal;font-variant-caps:normal;font-variant-numeric:normal;font-feature-settings:normal;text-align:end;letter-spacing:0px;word-spacing:0px;writing-mode:lr-tb;text-anchor:end;fill:#ffffff;fill-opacity:1;stroke:none;stroke-width:0.89779103"
           id="text888">
          <path
             d="m 48.042281,203.18207 v -0.21042 l 0.720103,-0.0468 v -6.15829 l -0.720103,-0.0468 v -0.21042 h 2.637262 v 0.21042 l -0.720104,0.0468 v 2.85236 l 2.515686,-0.0374 v -2.81495 l -0.720103,-0.0468 v -0.21042 h 2.637261 v 0.21042 l -0.720103,0.0468 v 6.15829 l 0.720103,0.0468 v 0.21042 h -2.637261 v -0.21042 l 0.720103,-0.0468 v -3.02537 h -2.515686 v 3.02537 l 0.720104,0.0468 v 0.21042 z"
             style="fill:#ffffff;fill-opacity:1;stroke-width:0.89779103"
             id="path820" />
        </g>
      </g>
    </g>
  </g>
</svg>
